<?xml version="1.0" encoding="utf-8"?>
<svg id="master-artboard" viewBox="0 0 343.74029541015625 322.5965881347656" version="1.1" xmlns="http://www.w3.org/2000/svg" x="0px" y="0px" enable-background="new 0 0 1400 980" width="343.74029541015625px" height="322.5965881347656px" xmlns:xlink="http://www.w3.org/1999/xlink"><rect id="ee-background" x="0" y="0" width="343.74029541015625" height="322.5965881347656" style="fill: white; fill-opacity: 0; pointer-events: none;"/>
<path d="M 0 0 H 1400 V 980 H 0 V 0 Z" fill="#FFFFFF" transform="matrix(1, 0, 0, 1, -61.48377513885498, -151.3446750640869)"/><g transform="matrix(1, 0, 0, 1, -61.48377513885498, -151.3446750640869)">
			<path d="M 368.199997 310.299988 A 136.5 136.5 0 0 1 231.699997 446.799988 A 136.5 136.5 0 0 1 95.199997 310.299988 A 136.5 136.5 0 0 1 231.699997 173.799988 A 136.5 136.5 0 0 1 368.199997 310.299988 Z" fill="#FFEDD8"/>
			<g>
				<defs>
					<path d="M 368.199997 310.299988 A 136.5 136.5 0 0 1 231.699997 446.799988 A 136.5 136.5 0 0 1 95.199997 310.299988 A 136.5 136.5 0 0 1 231.699997 173.799988 A 136.5 136.5 0 0 1 368.199997 310.299988 Z" id="SVGID_1_"/>
				</defs>
				<clipPath id="SVGID_2_">
					<use overflow="visible" xlink:href="#SVGID_1_"/>
				</clipPath>
				<g clip-path="url(#SVGID_2_)">
					<g>
						<path fill="#FBB36B" d="M195.6,305.2c0,6.9-5.6,12.5-12.5,12.5l0,0c-6.9,0-12.5-5.6-12.5-12.5v-10.3c0-6.9,5.6-12.5,12.5-12.5&#10;&#9;&#9;&#9;&#9;&#9;&#9;&#9;l0,0c6.9,0,12.5,5.6,12.5,12.5V305.2z"/>
					</g>
					<g>
						<path fill="#353028" d="M286.1,242.9c0,0,5.5,39.6,3.8,71.7c-1.7,32-11.1,48.1-11.1,48.1s-15.4-16-51.9-10.8&#10;&#9;&#9;&#9;&#9;&#9;&#9;&#9;c-36.4,5.2-39.6,9.6-39.6,9.6s-11.7-32.6-11.7-41.1c0-8.4,9.3-74.9,9.3-74.9s6.7-18.4,17.8-20.1&#10;&#9;&#9;&#9;&#9;&#9;&#9;&#9;C213.9,223.7,286.1,242.9,286.1,242.9z"/>
					</g>
					<g>
						<path fill="#FBB36B" d="M265,315.3c0,6.9,5.6,12.5,12.5,12.5l0,0c6.9,0,12.5-5.6,12.5-12.5V305c0-6.9-5.6-12.5-12.5-12.5l0,0&#10;&#9;&#9;&#9;&#9;&#9;&#9;&#9;c-6.9,0-12.5,5.6-12.5,12.5V315.3z"/>
					</g>
					<g>
						<g>
							<path fill="#FECE8B" d="M281.7,378.1c-22.5-5.6-42-9-48.8-10.1v-0.4c0,0-0.5,0.1-1.3,0.2c-0.8-0.1-1.3-0.2-1.3-0.2v0.4&#10;&#9;&#9;&#9;&#9;&#9;&#9;&#9;&#9;c-6.7,1.1-26.2,4.5-48.8,10.1c-28,7-26.8,68.7-26.8,68.7h153.6C308.5,446.8,309.6,385.1,281.7,378.1z"/>
						</g>
						<g>
							<path fill="#FBB36B" d="M239.9,350.1l-8.4-1.7l-8.4,1.7c0,0-6.4,17.5-6.4,25.1c0,7.6,14.9,11.1,14.9,11.1s14.9-3.5,14.9-11.1&#10;&#9;&#9;&#9;&#9;&#9;&#9;&#9;&#9;C246.3,367.6,239.9,350.1,239.9,350.1z"/>
						</g>
						<g>
							<path fill="#6CA0CA" d="M175,381.2c1.1,6.7,2.9,19.3,2.9,32.6c0,0-5.2,16.1-5.7,33h117.5c-0.5-16.9-5.7-33-5.7-33&#10;&#9;&#9;&#9;&#9;&#9;&#9;&#9;&#9;c0-13.9,2-27,3.1-33.5c-1.7-1-3.5-1.8-5.4-2.3c-3.6-0.9-7.1-1.7-10.5-2.5c-3.7,28.3-34.6,33.2-40.2,33.9&#10;&#9;&#9;&#9;&#9;&#9;&#9;&#9;&#9;c-5.6-0.7-36.4-5.5-40.2-33.6c-3,0.7-6,1.4-9.1,2.2C179.2,378.7,177,379.9,175,381.2z"/>
						</g>
					</g>
					<g>
						<path fill="#FECE8B" d="M231.7,236.5l-48.2,12.7c0,0,0,4.1,0,52c0,47.9,48.2,65.3,48.2,65.3s48.2-17.3,48.2-65.3&#10;&#9;&#9;&#9;&#9;&#9;&#9;&#9;c0-47.9,0-52,0-52L231.7,236.5z"/>
					</g>
					<g>
						<path fill="#3C362D" d="M270.1,252.2c0,0,11.1,45.4,11.1,46.3c0,0.9,6.1-46.3,5.2-51.3C285.6,242.3,270.1,252.2,270.1,252.2z"/>
					</g>
					<g>
						<g>
							<path fill="#3C362D" d="M258.9,294.8c0,4-1.4,7.2-3.1,7.2c-1.7,0-3.1-3.2-3.1-7.2c0-4,1.4-7.2,3.1-7.2&#10;&#9;&#9;&#9;&#9;&#9;&#9;&#9;&#9;C257.5,287.6,258.9,290.8,258.9,294.8z"/>
						</g>
						<g>
							<path fill="#3C362D" d="M210.7,294.8c0,4-1.4,7.2-3.1,7.2c-1.7,0-3.1-3.2-3.1-7.2c0-4,1.4-7.2,3.1-7.2&#10;&#9;&#9;&#9;&#9;&#9;&#9;&#9;&#9;C209.3,287.6,210.7,290.8,210.7,294.8z"/>
						</g>
					</g>
					<g>
						<path fill="#FBB36B" d="M241.6,329.7l-10.5-7.6l-9.3,6.5c0,0,3.3,6.5,9.5,6C237.4,334.1,241.6,329.7,241.6,329.7z"/>
					</g>
					<g>
						<path fill="#6CA0CA" d="M185.6,415.7l-7.9-36.4c0,0-16.3,6.4-25.6,30c0,0,5.8,17.8,25.1,17.8L185.6,415.7z"/>
					</g>
					<g>
						<path fill="#6CA0CA" d="M277.7,415.7l7.9-36.4c0,0,16.3,6.4,25.6,30c0,0-5.8,17.8-25.1,17.8L277.7,415.7z"/>
					</g>
					<g>
						<path fill="#625E5B" d="M231.1,382.2c-15.3,0-19.4-12-19.5-12.1l0,0h0l2.2-0.8c0.1,0,3.4,10.6,17.2,10.6l0,0&#10;&#9;&#9;&#9;&#9;&#9;&#9;&#9;c13.9,0,16.6-9.7,16.7-9.7l0,0l2.2,0.7C249.9,371,246.3,382.2,231.1,382.2L231.1,382.2C231.1,382.2,231.1,382.2,231.1,382.2&#10;&#9;&#9;&#9;&#9;&#9;&#9;&#9;L231.1,382.2z"/>
					</g>
					<g>
						<path fill="#F04B3A" d="M216.8,345.5c0,0,15.4-1.7,20.7-1.7c5.2,0,9.6,1.2,9.6,1.2s-9-5.5-10.8-5.5c-1.7,0-5.5,2.6-5.5,2.6&#10;&#9;&#9;&#9;&#9;&#9;&#9;&#9;s-2.3-1.5-5-1.5C223.2,340.5,216.8,345.5,216.8,345.5z"/>
					</g>
					<g>
						<path fill="#F04B3A" d="M224.1,348.4c0,0,5.8,2.9,10.8,1.5c5-1.5,8.2-2.6,8.2-2.6L224.1,348.4z"/>
					</g>
					<g>
						<path fill="#3C362D" d="M194.1,286.3c0,0,6.7-5.5,11.4-5.5c4.7,0,7.6,1.2,9.3,1.2c1.7,0,2-2,2-2S206.6,272.3,194.1,286.3z"/>
					</g>
					<g>
						<path fill="#3C362D" d="M271,286.3c0,0-6.7-5.5-11.4-5.5c-4.7,0-7.6,1.2-9.3,1.2c-1.7,0-2-2-2-2S258.5,272.3,271,286.3z"/>
					</g>
					<g>
						<path fill="#3C362D" d="M192.3,297.1c0-8.4,6.8-15.1,15.2-15.2l0,0c8.4,0,15.1,6.8,15.1,15.2l0,0c0,8.4-6.8,15.1-15.1,15.2&#10;&#9;&#9;&#9;&#9;&#9;&#9;&#9;l0,0C199.1,312.2,192.3,305.5,192.3,297.1L192.3,297.1z M194.7,297.1c0,7.1,5.7,12.8,12.8,12.8l0,0c7.1,0,12.8-5.7,12.8-12.8&#10;&#9;&#9;&#9;&#9;&#9;&#9;&#9;l0,0c0-7.1-5.7-12.8-12.8-12.8l0,0C200.4,284.3,194.7,290,194.7,297.1L194.7,297.1z"/>
					</g>
					<g>
						<path fill="#3C362D" d="M240.7,297.1c0-8.4,6.8-15.1,15.1-15.2l0,0c8.4,0,15.2,6.8,15.2,15.2l0,0c0,8.4-6.8,15.1-15.2,15.2&#10;&#9;&#9;&#9;&#9;&#9;&#9;&#9;l0,0C247.5,312.2,240.7,305.5,240.7,297.1L240.7,297.1z M243,297.1c0,7.1,5.7,12.8,12.8,12.8l0,0c7.1,0,12.8-5.7,12.8-12.8&#10;&#9;&#9;&#9;&#9;&#9;&#9;&#9;l0,0c0-7.1-5.7-12.8-12.8-12.8l0,0C248.8,284.3,243,290,243,297.1L243,297.1z"/>
					</g>
					<g>
						<path d="M 221.5 298.29998779296875 L 221.5 295.8999938964844 L 240.6999969482422 295.8999938964844 L 240.6999969482422 298.29998779296875 L 221.5 298.29998779296875 Z" fill="#3C362D"/>
					</g>
					<g>
						<path d="M 182.39999389648438 289.1000061035156 L 183.6999969482422 287.20001220703125 L 193.89999389648438 294.1000061035156 L 192.60000610351562 296 L 182.39999389648438 289.1000061035156 Z" fill="#3C362D"/>
					</g>
					<g>
						<path d="M 270.1000061035156 294.1000061035156 L 280.20001220703125 287.20001220703125 L 281.5 289.1000061035156 L 271.3999938964844 296 L 270.1000061035156 294.1000061035156 Z" fill="#3C362D"/>
					</g>
					<g>
						<path fill="#3C362D" d="M195,369.1c0,0-7.9-35.2-8.4-69.9c-0.6-34.7,4.1-46.6,4.1-46.6s2.3,15.1,1.7,16.6&#10;&#9;&#9;&#9;&#9;&#9;&#9;&#9;c-0.6,1.5,21,2.3,50.4-5.8c29.4-8.2,37.1-14.1,37.1-14.1l-16.4,12.9c0,0,21.3-8.7,23-14.9c1.7-6.1-12.5-41.9-55.9-41.9&#10;&#9;&#9;&#9;&#9;&#9;&#9;&#9;c-43.4,0-64.4,31.8-68.2,77.2c-3.8,45.4,4.4,71.1,4.4,71.1L195,369.1z"/>
					</g>
				</g>
			</g>
		</g><defs>
					<path d="M 680.400024 310.299988 A 136.5 136.5 0 0 1 543.900024 446.799988 A 136.5 136.5 0 0 1 407.400024 310.299988 A 136.5 136.5 0 0 1 543.900024 173.799988 A 136.5 136.5 0 0 1 680.400024 310.299988 Z" id="SVGID_3_"/>
				</defs><clipPath id="SVGID_4_">
					<use overflow="visible" xlink:href="#SVGID_3_"/>
				</clipPath><defs>
					<path d="M 992.599976 310.299988 A 136.5 136.5 0 0 1 856.099976 446.799988 A 136.5 136.5 0 0 1 719.599976 310.299988 A 136.5 136.5 0 0 1 856.099976 173.799988 A 136.5 136.5 0 0 1 992.599976 310.299988 Z" id="SVGID_5_"/>
				</defs><clipPath id="SVGID_6_">
					<use overflow="visible" xlink:href="#SVGID_5_"/>
				</clipPath><defs>
					<path d="M 1304.800049 310.299988 A 136.5 136.5 0 0 1 1168.300049 446.799988 A 136.5 136.5 0 0 1 1031.800049 310.299988 A 136.5 136.5 0 0 1 1168.300049 173.799988 A 136.5 136.5 0 0 1 1304.800049 310.299988 Z" id="SVGID_7_"/>
				</defs><clipPath id="SVGID_8_">
					<use overflow="visible" xlink:href="#SVGID_7_"/>
				</clipPath><defs>
					<path d="M 368.199997 669.700012 A 136.5 136.5 0 0 1 231.699997 806.200012 A 136.5 136.5 0 0 1 95.199997 669.700012 A 136.5 136.5 0 0 1 231.699997 533.200012 A 136.5 136.5 0 0 1 368.199997 669.700012 Z" id="SVGID_9_"/>
				</defs><clipPath id="SVGID_10_">
					<use overflow="visible" xlink:href="#SVGID_9_"/>
				</clipPath><defs>
					<path d="M 680.400024 669.700012 A 136.5 136.5 0 0 1 543.900024 806.200012 A 136.5 136.5 0 0 1 407.400024 669.700012 A 136.5 136.5 0 0 1 543.900024 533.200012 A 136.5 136.5 0 0 1 680.400024 669.700012 Z" id="SVGID_11_"/>
				</defs><clipPath id="SVGID_12_">
					<use overflow="visible" xlink:href="#SVGID_11_"/>
				</clipPath><defs>
					<path d="M 992.599976 669.700012 A 136.5 136.5 0 0 1 856.099976 806.200012 A 136.5 136.5 0 0 1 719.599976 669.700012 A 136.5 136.5 0 0 1 856.099976 533.200012 A 136.5 136.5 0 0 1 992.599976 669.700012 Z" id="SVGID_13_"/>
				</defs><clipPath id="SVGID_14_">
					<use overflow="visible" xlink:href="#SVGID_13_"/>
				</clipPath><defs>
					<path d="M 1304.800049 669.700012 A 136.5 136.5 0 0 1 1168.300049 806.200012 A 136.5 136.5 0 0 1 1031.800049 669.700012 A 136.5 136.5 0 0 1 1168.300049 533.200012 A 136.5 136.5 0 0 1 1304.800049 669.700012 Z" id="SVGID_15_"/>
				</defs><clipPath id="SVGID_16_">
					<use overflow="visible" xlink:href="#SVGID_15_"/>
				</clipPath>
</svg>