<?xml version="1.0" encoding="utf-8"?>
<svg id="master-artboard" viewBox="0 0 343.74029541015625 322.5965881347656" version="1.1" xmlns="http://www.w3.org/2000/svg" x="0px" y="0px" enable-background="new 0 0 1400 980" width="343.74029541015625px" height="322.5965881347656px" xmlns:xlink="http://www.w3.org/1999/xlink"><rect id="ee-background" x="0" y="0" width="343.74029541015625" height="322.5965881347656" style="fill: white; fill-opacity: 0; pointer-events: none;"/>
<path d="M 0 0 H 1400 V 980 H 0 V 0 Z" fill="#FFFFFF" transform="matrix(1, 0, 0, 1, -58.330718994140625, -515.5177917480469)"/><defs>
					<path d="M 680.400024 310.299988 A 136.5 136.5 0 0 1 543.900024 446.799988 A 136.5 136.5 0 0 1 407.400024 310.299988 A 136.5 136.5 0 0 1 543.900024 173.799988 A 136.5 136.5 0 0 1 680.400024 310.299988 Z" id="SVGID_3_"/>
				</defs><clipPath id="SVGID_4_">
					<use overflow="visible" xlink:href="#SVGID_3_"/>
				</clipPath><defs>
					<path d="M 992.599976 310.299988 A 136.5 136.5 0 0 1 856.099976 446.799988 A 136.5 136.5 0 0 1 719.599976 310.299988 A 136.5 136.5 0 0 1 856.099976 173.799988 A 136.5 136.5 0 0 1 992.599976 310.299988 Z" id="SVGID_5_"/>
				</defs><clipPath id="SVGID_6_">
					<use overflow="visible" xlink:href="#SVGID_5_"/>
				</clipPath><defs>
					<path d="M 1304.800049 310.299988 A 136.5 136.5 0 0 1 1168.300049 446.799988 A 136.5 136.5 0 0 1 1031.800049 310.299988 A 136.5 136.5 0 0 1 1168.300049 173.799988 A 136.5 136.5 0 0 1 1304.800049 310.299988 Z" id="SVGID_7_"/>
				</defs><clipPath id="SVGID_8_">
					<use overflow="visible" xlink:href="#SVGID_7_"/>
				</clipPath><path d="M 368.199997 669.700012 A 136.5 136.5 0 0 1 231.699997 806.200012 A 136.5 136.5 0 0 1 95.199997 669.700012 A 136.5 136.5 0 0 1 231.699997 533.200012 A 136.5 136.5 0 0 1 368.199997 669.700012 Z" fill="#FFEDD8" transform="matrix(1, 0, 0, 1, -58.330718994140625, -515.5177917480469)"/><defs>
					<path d="M 368.199997 669.700012 A 136.5 136.5 0 0 1 231.699997 806.200012 A 136.5 136.5 0 0 1 95.199997 669.700012 A 136.5 136.5 0 0 1 231.699997 533.200012 A 136.5 136.5 0 0 1 368.199997 669.700012 Z" id="SVGID_9_"/>
				</defs><clipPath id="SVGID_10_">
					<use overflow="visible" xlink:href="#SVGID_9_"/>
				</clipPath><g transform="matrix(1, 0, 0, 1, -58.330718994140625, -515.5177917480469)">
						<path fill="#F69321" d="M315.3,756.5c-15.8-18.5-58.9-23.7-81.6-24.3v-0.1c-0.7,0-1.4,0-2.1,0c-0.7,0-1.5,0-2.1,0v0.1&#10;&#9;&#9;&#9;&#9;&#9;&#9;&#9;c-22.7,0.6-65.7,5.8-81.6,24.3c-16.9,19.7-16.9,56.2-16.9,56.2h201.1C332.2,812.7,332.2,776.2,315.3,756.5z"/>
					</g><path d="M 163 794.900024 H 301.300003 V 809.000025 H 163 V 794.900024 Z" fill="#FFFFFF" transform="matrix(1, 0, 0, 1, -58.330718994140625, -515.5177917480469)"/><path fill="#FBB36B" d="M244.7,741.2c0,0-4.5,13.4-12.6,13.4c-8.2,0-13.4-13.4-13.4-13.4v-22.3h26V741.2z" transform="matrix(1, 0, 0, 1, -58.330718994140625, -515.5177917480469)"/><g transform="matrix(1, 0, 0, 1, -58.330718994140625, -515.5177917480469)">
							<path fill="#FBB36B" d="M197.5,675c0,7.4-6,13.4-13.4,13.4l0,0c-7.4,0-13.4-6-13.4-13.4v-11.9c0-7.4,6-13.4,13.4-13.4l0,0&#10;&#9;&#9;&#9;&#9;&#9;&#9;&#9;&#9;c7.4,0,13.4,6,13.4,13.4V675z"/>
						</g><path fill="#FBB36B" d="M265.9,675c0,7.4,6,13.4,13.4,13.4l0,0c7.4,0,13.4-6,13.4-13.4v-11.9c0-7.4-6-13.4-13.4-13.4l0,0&#10;&#9;&#9;&#9;&#9;&#9;&#9;&#9;&#9;c-7.4,0-13.4,6-13.4,13.4V675z" transform="matrix(1, 0, 0, 1, -58.330718994140625, -515.5177917480469)"/><path fill="#FECE8B" d="M278.5,608.2l-0.2,0c-1.7-40-46.7-37.7-46.7-37.7s-45-2.3-46.7,37.7l-0.1,0c0,0,0,0.8,0,2.1&#10;&#9;&#9;&#9;&#9;&#9;&#9;&#9;&#9;c0,0,0,0,0,0.1c0,42.4,0,78.8,0,78.8l0.2,0c1.7,40,46.7,37.7,46.7,37.7s45,2.3,46.7-37.7l0.2,0c0,0,0-0.8,0-2.1&#10;&#9;&#9;&#9;&#9;&#9;&#9;&#9;&#9;c0,0,0,0,0-0.1C278.5,644.6,278.5,608.2,278.5,608.2z" transform="matrix(1, 0, 0, 1, -58.330718994140625, -515.5177917480469)"/><path fill="#FBB36B" d="M278.3,608.1c-1.7-40-46.7-37.7-46.7-37.7s-1.2,0-3,0c10,0.3,42.2,3.9,43.6,37.7l0.2,0&#10;&#9;&#9;&#9;&#9;&#9;&#9;&#9;&#9;c0,0,0,36.4,0,78.8c0,0,0,0,0,0.1c0,1.3,0,2.1,0,2.1l-0.2,0c-1.4,33.7-33.6,37.4-43.6,37.7c1.9,0.1,3,0,3,0s45,2.3,46.7-37.7&#10;&#9;&#9;&#9;&#9;&#9;&#9;&#9;&#9;l0.2,0c0,0,0-0.8,0-2.1c0,0,0,0,0-0.1c0-42.4,0-78.8,0-78.8L278.3,608.1z" transform="matrix(1, 0, 0, 1, -58.330718994140625, -515.5177917480469)"/><path fill="#FBB36B" d="M242.6,688c0,0-5.6-6.3-9.7-6.3c-4.1,0-9.4,5.6-9.4,5.6s3.4,6.6,9.7,6.6&#10;&#9;&#9;&#9;&#9;&#9;&#9;&#9;&#9;C239.5,694,242.6,688,242.6,688z" transform="matrix(1, 0, 0, 1, -58.330718994140625, -515.5177917480469)"/><path fill="#3C362D" d="M254.2,654.1c0,3.2-1.1,5.8-2.5,5.8c-1.4,0-2.5-2.6-2.5-5.8c0-3.2,1.1-5.8,2.5-5.8&#10;&#9;&#9;&#9;&#9;&#9;&#9;&#9;&#9;C253,648.4,254.2,650.9,254.2,654.1z" transform="matrix(1, 0, 0, 1, -58.330718994140625, -515.5177917480469)"/><path fill="#3C362D" d="M215.4,654.1c0,3.2-1.1,5.8-2.5,5.8c-1.4,0-2.5-2.6-2.5-5.8c0-3.2,1.1-5.8,2.5-5.8&#10;&#9;&#9;&#9;&#9;&#9;&#9;&#9;&#9;C214.3,648.4,215.4,650.9,215.4,654.1z" transform="matrix(1, 0, 0, 1, -58.330718994140625, -515.5177917480469)"/><path fill="#3C362D" d="M212.1,704.5c-0.3-0.4-0.1-1,0.3-1.3l0,0c0.4-0.3,1-0.1,1.3,0.3l0,0c0.1,0,4.9,8.3,19.5,8.3l0,0&#10;&#9;&#9;&#9;&#9;&#9;&#9;&#9;&#9;c14.5,0,20.1-9.8,20.1-9.8l0,0c0.2-0.5,0.8-0.6,1.3-0.4l0,0c0.4,0.3,0.6,0.8,0.4,1.3l0,0c-0.1,0.1-6.3,10.8-21.7,10.8l0,0&#10;&#9;&#9;&#9;&#9;&#9;&#9;&#9;&#9;C217.8,713.7,212.2,704.6,212.1,704.5L212.1,704.5z" transform="matrix(1, 0, 0, 1, -58.330718994140625, -515.5177917480469)"/><path fill="#FFE4A6" d="M217,576.9c1.1,1.4-2.9,6.5-9.1,11.4c-6.1,4.9-12,7.7-13.2,6.3c-1.1-1.4,2.9-6.5,9.1-11.4&#10;&#9;&#9;&#9;&#9;&#9;&#9;&#9;&#9;C210,578.2,215.9,575.4,217,576.9z" transform="matrix(1, 0, 0, 1, -58.330718994140625, -515.5177917480469)"/><path fill="#3C362D" d="M223,640.7c0,0-1.1-0.8-2.7-1.6l0,0c-1.6-0.8-3.7-1.6-5.8-1.6l0,0c-4.4,0-11.6,2.1-11.6,2.1l0,0h0&#10;&#9;&#9;&#9;&#9;&#9;&#9;&#9;&#9;c-0.5,0.2-1-0.1-1.2-0.6l0,0c-0.2-0.5,0.1-1,0.6-1.2l0,0c0,0,7.2-2.2,12.1-2.2l0,0c5.1,0,9.6,3.6,9.7,3.7l0,0&#10;&#9;&#9;&#9;&#9;&#9;&#9;&#9;&#9;c0.4,0.3,0.5,0.9,0.2,1.3l0,0c-0.2,0.2-0.5,0.4-0.7,0.4l0,0C223.3,640.9,223.1,640.8,223,640.7L223,640.7z" transform="matrix(1, 0, 0, 1, -58.330718994140625, -515.5177917480469)"/><path fill="#3C362D" d="M241.2,640.5c-0.3-0.4-0.2-1,0.2-1.3l0,0c0.1,0,4.5-3.6,9.7-3.6l0,0c4.9,0,12.1,2.2,12.1,2.2l0,0&#10;&#9;&#9;&#9;&#9;&#9;&#9;&#9;&#9;c0.5,0.2,0.8,0.7,0.6,1.2l0,0c-0.2,0.5-0.7,0.8-1.2,0.6l0,0c0,0-7.2-2.2-11.6-2.1l0,0c-4.3,0-8.5,3.2-8.5,3.2l0,0&#10;&#9;&#9;&#9;&#9;&#9;&#9;&#9;&#9;c-0.2,0.1-0.4,0.2-0.6,0.2l0,0C241.7,640.9,241.4,640.7,241.2,640.5L241.2,640.5z" transform="matrix(1, 0, 0, 1, -58.330718994140625, -515.5177917480469)"/><path fill="#CF712C" d="M157.5,812.7h9.7v-48.4c0,0-9.7,39.4-9.7,46.3C157.4,811.3,157.5,812.1,157.5,812.7z M296.2,764.3&#10;&#9;&#9;&#9;&#9;&#9;&#9;&#9;v48.4h9.7c0-0.7,0-1.4,0-2.2C305.9,803.7,296.2,764.3,296.2,764.3z" transform="matrix(1, 0, 0, 1, -58.330718994140625, -515.5177917480469)"/><defs>
					<path d="M 680.400024 669.700012 A 136.5 136.5 0 0 1 543.900024 806.200012 A 136.5 136.5 0 0 1 407.400024 669.700012 A 136.5 136.5 0 0 1 543.900024 533.200012 A 136.5 136.5 0 0 1 680.400024 669.700012 Z" id="SVGID_11_"/>
				</defs><clipPath id="SVGID_12_">
					<use overflow="visible" xlink:href="#SVGID_11_"/>
				</clipPath><defs>
					<path d="M 992.599976 669.700012 A 136.5 136.5 0 0 1 856.099976 806.200012 A 136.5 136.5 0 0 1 719.599976 669.700012 A 136.5 136.5 0 0 1 856.099976 533.200012 A 136.5 136.5 0 0 1 992.599976 669.700012 Z" id="SVGID_13_"/>
				</defs><clipPath id="SVGID_14_">
					<use overflow="visible" xlink:href="#SVGID_13_"/>
				</clipPath><defs>
					<path d="M 1304.800049 669.700012 A 136.5 136.5 0 0 1 1168.300049 806.200012 A 136.5 136.5 0 0 1 1031.800049 669.700012 A 136.5 136.5 0 0 1 1168.300049 533.200012 A 136.5 136.5 0 0 1 1304.800049 669.700012 Z" id="SVGID_15_"/>
				</defs><clipPath id="SVGID_16_">
					<use overflow="visible" xlink:href="#SVGID_15_"/>
				</clipPath>
</svg>