<?xml version="1.0" encoding="utf-8"?>
<svg id="master-artboard" viewBox="0 0 343.74029541015625 322.5965881347656" version="1.1" xmlns="http://www.w3.org/2000/svg" x="0px" y="0px" enable-background="new 0 0 1400 980" width="343.74029541015625px" height="322.5965881347656px" xmlns:xlink="http://www.w3.org/1999/xlink"><rect id="ee-background" x="0" y="0" width="343.74029541015625" height="322.5965881347656" style="fill: white; fill-opacity: 0; pointer-events: none;"/>
<path d="M 0 0 H 1400 V 980 H 0 V 0 Z" fill="#FFFFFF" transform="matrix(1, 0, 0, 1, -375.2086486816406, -509.2117919921875)"/><defs>
					<path d="M 680.400024 310.299988 A 136.5 136.5 0 0 1 543.900024 446.799988 A 136.5 136.5 0 0 1 407.400024 310.299988 A 136.5 136.5 0 0 1 543.900024 173.799988 A 136.5 136.5 0 0 1 680.400024 310.299988 Z" id="SVGID_3_"/>
				</defs><clipPath id="SVGID_4_">
					<use overflow="visible" xlink:href="#SVGID_3_"/>
				</clipPath><defs>
					<path d="M 992.599976 310.299988 A 136.5 136.5 0 0 1 856.099976 446.799988 A 136.5 136.5 0 0 1 719.599976 310.299988 A 136.5 136.5 0 0 1 856.099976 173.799988 A 136.5 136.5 0 0 1 992.599976 310.299988 Z" id="SVGID_5_"/>
				</defs><clipPath id="SVGID_6_">
					<use overflow="visible" xlink:href="#SVGID_5_"/>
				</clipPath><defs>
					<path d="M 1304.800049 310.299988 A 136.5 136.5 0 0 1 1168.300049 446.799988 A 136.5 136.5 0 0 1 1031.800049 310.299988 A 136.5 136.5 0 0 1 1168.300049 173.799988 A 136.5 136.5 0 0 1 1304.800049 310.299988 Z" id="SVGID_7_"/>
				</defs><clipPath id="SVGID_8_">
					<use overflow="visible" xlink:href="#SVGID_7_"/>
				</clipPath><defs>
					<path d="M 368.199997 669.700012 A 136.5 136.5 0 0 1 231.699997 806.200012 A 136.5 136.5 0 0 1 95.199997 669.700012 A 136.5 136.5 0 0 1 231.699997 533.200012 A 136.5 136.5 0 0 1 368.199997 669.700012 Z" id="SVGID_9_"/>
				</defs><clipPath id="SVGID_10_">
					<use overflow="visible" xlink:href="#SVGID_9_"/>
				</clipPath><path d="M 680.400024 669.700012 A 136.5 136.5 0 0 1 543.900024 806.200012 A 136.5 136.5 0 0 1 407.400024 669.700012 A 136.5 136.5 0 0 1 543.900024 533.200012 A 136.5 136.5 0 0 1 680.400024 669.700012 Z" fill="#FFEDD8" transform="matrix(1, 0, 0, 1, -375.2086486816406, -509.2117919921875)"/><defs>
					<path d="M 680.400024 669.700012 A 136.5 136.5 0 0 1 543.900024 806.200012 A 136.5 136.5 0 0 1 407.400024 669.700012 A 136.5 136.5 0 0 1 543.900024 533.200012 A 136.5 136.5 0 0 1 680.400024 669.700012 Z" id="SVGID_11_"/>
				</defs><clipPath id="SVGID_12_">
					<use overflow="visible" xlink:href="#SVGID_11_"/>
				</clipPath><g transform="matrix(1, 0, 0, 1, -375.2086486816406, -509.2117919921875)">
						<path fill="#3C362D" d="M523,748.8c0,0-30.4-1.5-36.9-18.6c-6.5-17.1,0.8-19.8,1.5-30c0.8-10.3-10.3,6.1-8.4,14.8&#10;&#9;&#9;&#9;&#9;&#9;&#9;&#9;c1.9,8.7,1.9,8.7,1.9,8.7s-7.6-7.2-4.9-21.3c2.7-14.1,14.8-28.1,13.7-42.2c-1.1-14.1-0.8-3,0-30.8&#10;&#9;&#9;&#9;&#9;&#9;&#9;&#9;c0.8-27.7,20.5-62.3,55.9-62.3c35.3,0,68.4,15.6,55.5,86.6c-12.9,71.1-30.8,65-26.2,79.8c4.6,14.8,7.2,17.5,7.2,17.5&#10;&#9;&#9;&#9;&#9;&#9;&#9;&#9;L523,748.8z"/>
					</g><path fill="#FBB36B" d="M509.6,667.6c0,6.8-5.5,12.3-12.3,12.3l0,0c-6.8,0-12.3-5.5-12.3-12.3v-10.1c0-6.8,5.5-12.3,12.3-12.3&#10;&#9;&#9;&#9;&#9;&#9;&#9;&#9;l0,0c6.8,0,12.3,5.5,12.3,12.3V667.6z" transform="matrix(1, 0, 0, 1, -375.2086486816406, -509.2117919921875)"/><path fill="#FBB36B" d="M577.6,677.5c0,6.8,5.5,12.3,12.3,12.3l0,0c6.8,0,12.3-5.5,12.3-12.3v-10.1c0-6.8-5.5-12.3-12.3-12.3&#10;&#9;&#9;&#9;&#9;&#9;&#9;&#9;l0,0c-6.8,0-12.3,5.5-12.3,12.3V677.5z" transform="matrix(1, 0, 0, 1, -375.2086486816406, -509.2117919921875)"/><g transform="matrix(1, 0, 0, 1, -375.2086486816406, -509.2117919921875)">
							<path fill="#FECE8B" d="M593.8,738.9c-22.1-5.5-41.1-8.8-47.7-9.9v-0.4c0,0-0.4,0.1-1.2,0.2c-0.8-0.1-1.2-0.2-1.2-0.2v0.4&#10;&#9;&#9;&#9;&#9;&#9;&#9;&#9;&#9;c-6.6,1.1-25.6,4.4-47.7,9.9c-27.4,6.8-26.2,67.3-26.2,67.3h150.3C620.1,806.2,621.2,745.7,593.8,738.9z"/>
						</g><path fill="#9A1F22" d="M522.9,735.5c0,0-2.3-7.1-2-8.8c0.3-1.7,0.6-3.1,2.3-3.7c1.7-0.6,12.5,6,26.5,3.7&#10;&#9;&#9;&#9;&#9;&#9;&#9;&#9;&#9;c14-2.3,21.1-9.4,25.1-4.6c4,4.8-5.7,14.8-8.3,16.2c-2.6,1.4-8.5,4.6-18,3.4C539.2,740.6,522.9,735.5,522.9,735.5z" transform="matrix(1, 0, 0, 1, -375.2086486816406, -509.2117919921875)"/><path fill="#FBB36B" d="M553,711.6l-8.3-1.7l-8.3,1.7c0,0-6.3,17.1-6.3,24.5c0,7.4,14.5,10.8,14.5,10.8s14.5-3.4,14.5-10.8&#10;&#9;&#9;&#9;&#9;&#9;&#9;&#9;&#9;C559.3,728.7,553,711.6,553,711.6z" transform="matrix(1, 0, 0, 1, -375.2086486816406, -509.2117919921875)"/><path fill="#564D47" d="M499.9,775.7l-7.7-35.6c0,0-10,6.5-19.1,29.6c0,0-0.3,17.1,18.5,17.1L499.9,775.7z" transform="matrix(1, 0, 0, 1, -375.2086486816406, -509.2117919921875)"/><path fill="#564D47" d="M589.9,775.7l7.7-35.6c0,0,10,8.5,19.1,31.6c0,0,0.3,15.1-18.5,15.1L589.9,775.7z" transform="matrix(1, 0, 0, 1, -375.2086486816406, -509.2117919921875)"/><path fill="#564D47" d="M489.5,742c1.1,6.6,2.9,18.9,2.9,31.9c0,0-5.1,15.7-5.6,32.3h114.9c-0.5-16.5-5.6-32.3-5.6-32.3&#10;&#9;&#9;&#9;&#9;&#9;&#9;&#9;&#9;c0-13.6,1.9-26.4,3-32.7c-1.6-1-3.4-1.8-5.3-2.2c-3.5-0.9-6.9-1.7-10.3-2.4c-3.6,27.7-33.8,32.5-39.3,33.1&#10;&#9;&#9;&#9;&#9;&#9;&#9;&#9;&#9;c-5.5-0.6-35.6-5.4-39.3-32.8c-2.9,0.7-5.9,1.4-8.9,2.2C493.6,739.5,491.5,740.6,489.5,742z" transform="matrix(1, 0, 0, 1, -375.2086486816406, -509.2117919921875)"/><path fill="#FECE8B" d="M544.9,594.1l-47.1,18.7c0,0,0,4,0,50.8c0,46.9,47.1,63.8,47.1,63.8s47.1-17,47.1-63.8&#10;&#9;&#9;&#9;&#9;&#9;&#9;&#9;c0-46.9,0-50.8,0-50.8L544.9,594.1z" transform="matrix(1, 0, 0, 1, -375.2086486816406, -509.2117919921875)"/><g transform="matrix(1, 0, 0, 1, -375.2086486816406, -509.2117919921875)">
							<path fill="#3C362D" d="M569.6,659.6c-0.2,3.9-1.7,7-3.4,6.9c-1.7-0.1-2.9-3.3-2.7-7.2c0.2-3.9,1.7-6.9,3.4-6.9&#10;&#9;&#9;&#9;&#9;&#9;&#9;&#9;&#9;C568.6,652.5,569.8,655.7,569.6,659.6z"/>
						</g><path fill="#3C362D" d="M524.7,659c-0.2,3.9-1.7,6.9-3.4,6.9c-1.7-0.1-2.9-3.3-2.7-7.2c0.2-3.9,1.7-7,3.4-6.9&#10;&#9;&#9;&#9;&#9;&#9;&#9;&#9;&#9;C523.7,651.9,524.9,655.1,524.7,659z" transform="matrix(1, 0, 0, 1, -375.2086486816406, -509.2117919921875)"/><path fill="#FBB36B" d="M554.6,691.5l-10.3-7.4l-9.1,6.4c0,0,3.2,6.4,9.3,5.8C550.5,695.8,554.6,691.5,554.6,691.5z" transform="matrix(1, 0, 0, 1, -375.2086486816406, -509.2117919921875)"/><path fill="#3C362D" d="M511.1,639.5c0,0,4.8-2.4,10.3-0.8c5.5,1.5,6.7,5.1,8.6,5.4c1.9,0.3,4.5-0.9,4.8-2.8&#10;&#9;&#9;&#9;&#9;&#9;&#9;&#9;C535,639.4,521,628.9,511.1,639.5z" transform="matrix(1, 0, 0, 1, -375.2086486816406, -509.2117919921875)"/><path fill="#3C362D" d="M580,649.8c0,0-3.8-3.8-9.5-4.2c-5.7-0.4-8,2.7-9.9,2.3c-1.9-0.4-4-2.3-3.6-4.2&#10;&#9;&#9;&#9;&#9;&#9;&#9;&#9;C557.4,641.8,574.1,636.5,580,649.8z" transform="matrix(1, 0, 0, 1, -375.2086486816406, -509.2117919921875)"/><path fill="#F04B3A" d="M529.3,702.6c-0.3-0.6,0-1.2,0.5-1.5l0,0c0.6-0.3,1.2,0,1.5,0.5l0,0c0.1-0.1,1.9,4.7,13.2,4.8l0,0&#10;&#9;&#9;&#9;&#9;&#9;&#9;&#9;c11.3,0,15.6-5.6,15.6-5.6l0,0c0.4-0.5,1.1-0.6,1.6-0.2l0,0c0.5,0.4,0.6,1.1,0.2,1.6l0,0c-0.1,0.2-5.3,6.4-17.4,6.4l0,0&#10;&#9;&#9;&#9;&#9;&#9;&#9;&#9;c-0.1,0-0.1,0-0.2,0l0,0C532.5,708.7,529.4,702.9,529.3,702.6L529.3,702.6z" transform="matrix(1, 0, 0, 1, -375.2086486816406, -509.2117919921875)"/><path fill="#3C362D" d="M539.4,585c0,0-4.2,33.4-20.5,42.6c-16.3,9.1-17.1,28.1-18.2,45.2c-1.1,17.1,11,51.7,11,51.7&#10;&#9;&#9;&#9;&#9;&#9;&#9;&#9;s-10.6-9.9-16.3-42.2c-5.7-32.3-2.3-63.5,1.5-80.2C500.6,585.4,539.4,585,539.4,585z" transform="matrix(1, 0, 0, 1, -375.2086486816406, -509.2117919921875)"/><path fill="#3C362D" d="M546.6,588.7c0,0,7.6,32.8,24.8,40.2c17.2,7.4,19.9,26.2,22.8,43.1c2.9,16.9-5.6,52.5-5.6,52.5&#10;&#9;&#9;&#9;&#9;&#9;&#9;&#9;s9.6-10.9,11.9-43.6c2.3-32.7-4.3-63.4-9.8-79.6C585.2,585.1,546.6,588.7,546.6,588.7z" transform="matrix(1, 0, 0, 1, -375.2086486816406, -509.2117919921875)"/><path fill="#3C362D" d="M514.7,630.2c0,0,37.2-9.9,44.8-27l-1.5-20.1c0,0-20.1-2.7-31.2,4.9&#10;&#9;&#9;&#9;&#9;&#9;&#9;&#9;C515.8,595.6,514.7,630.2,514.7,630.2z" transform="matrix(1, 0, 0, 1, -375.2086486816406, -509.2117919921875)"/><path fill="#9A1F22" d="M548.6,748.3c0,0-10,6.8-11.7,20.5c-1.7,13.7,1.1,27.9,1.7,30.2c0.6,2.3-7.1,4.6-11.7,1.7&#10;&#9;&#9;&#9;&#9;&#9;&#9;&#9;c-4.6-2.8-4.6-6.3-6.8-3.7c-2.3,2.6-5.7-25.1-5.7-37.9c0-12.8,11.4-17.4,11.4-17.4L548.6,748.3z" transform="matrix(1, 0, 0, 1, -375.2086486816406, -509.2117919921875)"/><path fill="#BE202E" d="M523.2,722.9c0,0,8.8,12,24.2,11.1c15.4-0.9,21.9-11.7,27.4-12c5.4-0.3,3.7,7.4,3.7,7.4&#10;&#9;&#9;&#9;&#9;&#9;&#9;&#9;s4.6,3.1,3.7,8.5c-0.9,5.4-17.4,21.1-40.5,15.4c-23.1-5.7-31.6-15.4-31.9-18.8c-0.3-3.4,6.3-4.3,6.3-4.3&#10;&#9;&#9;&#9;&#9;&#9;&#9;&#9;S516.4,723.8,523.2,722.9z" transform="matrix(1, 0, 0, 1, -375.2086486816406, -509.2117919921875)"/><g transform="matrix(1, 0, 0, 1, -375.2086486816406, -509.2117919921875)">
							<path fill="#A87D50" d="M467.7,806.2h52.2v-52.4c0,0,6,4.3,8.3,3.4c2.3-0.9,4.8-9.7,4.8-9.7s-20.2-8.8-21.9-11.7&#10;&#9;&#9;&#9;&#9;&#9;&#9;&#9;&#9;c-1.7-2.9-1.4-7.4-1.7-8.3c-0.3-0.9-4.8-1.7-6.8-0.6c-2,1.1-2.3,6.8-2.3,7.7c0,0.9-12,4.6-19.4,12.3&#10;&#9;&#9;&#9;&#9;&#9;&#9;&#9;&#9;c-7.4,7.7-5.7,3.7-8.8,12.8C468.8,768.8,467.7,806.2,467.7,806.2z"/>
						</g><path fill="#754D29" d="M526.6,753.4c-4.3,0.3-15.7-7.4-19.4-10.3c-3.7-2.8-5.1-9.1-5.1-9.1s-1.7,5.4,0,8.3&#10;&#9;&#9;&#9;&#9;&#9;&#9;&#9;&#9;c1.7,2.8,15.4,11.1,15.4,11.1v52.8h2.3v-52.4c0,0,6,4.3,8.3,3.4c2.3-0.9,4.8-9.7,4.8-9.7s-0.7-0.3-1.6-0.7&#10;&#9;&#9;&#9;&#9;&#9;&#9;&#9;&#9;C530.6,749.7,529.2,753.2,526.6,753.4z" transform="matrix(1, 0, 0, 1, -375.2086486816406, -509.2117919921875)"/><path fill="#754D29" d="M493.5,806.2c-0.2-4.4,0-15.5,4.9-24.3v-6.2c0,0-4.6-8-4.8-9.2c-0.3-1.1-0.9,4.3,2.6,9.1&#10;&#9;&#9;&#9;&#9;&#9;&#9;&#9;&#9;c0,0-6.9,9.7-7.6,30.5H493.5z" transform="matrix(1, 0, 0, 1, -375.2086486816406, -509.2117919921875)"/><path fill="#C3996B" d="M473.4,755.1c0,0,4.6,3.4,6.8,3.1c2.3-0.3,13.4-14.2,16.2-15.7c2.9-1.4-1.1-6-1.1-6&#10;&#9;&#9;&#9;&#9;&#9;&#9;&#9;&#9;S482.5,738.9,473.4,755.1z" transform="matrix(1, 0, 0, 1, -375.2086486816406, -509.2117919921875)"/><g transform="matrix(1, 0, 0, 1, -375.2086486816406, -509.2117919921875)">
							<path fill="#A87D50" d="M620.1,806.2H568v-52.4c0,0-6,4.3-8.3,3.4c-2.3-0.9-4.8-9.7-4.8-9.7s20.2-8.8,21.9-11.7&#10;&#9;&#9;&#9;&#9;&#9;&#9;&#9;&#9;c1.7-2.9,1.4-7.4,1.7-8.3c0.3-0.9,4.8-1.7,6.8-0.6c2,1.1,2.3,6.8,2.3,7.7c0,0.9,12,4.6,19.4,12.3c7.4,7.7,5.7,3.7,8.8,12.8&#10;&#9;&#9;&#9;&#9;&#9;&#9;&#9;&#9;C619,768.8,620.1,806.2,620.1,806.2z"/>
						</g><path fill="#754D29" d="M561.1,753.4c4.3,0.3,15.7-7.4,19.4-10.3c3.7-2.8,5.1-9.1,5.1-9.1s1.7,5.4,0,8.3&#10;&#9;&#9;&#9;&#9;&#9;&#9;&#9;&#9;c-1.7,2.8-15.4,11.1-15.4,11.1v52.8H568v-52.4c0,0-6,4.3-8.3,3.4c-2.3-0.9-4.8-9.7-4.8-9.7s0.7-0.3,1.6-0.7&#10;&#9;&#9;&#9;&#9;&#9;&#9;&#9;&#9;C557.2,749.7,558.6,753.2,561.1,753.4z" transform="matrix(1, 0, 0, 1, -375.2086486816406, -509.2117919921875)"/><path fill="#754D29" d="M594.3,806.2c0.2-4.4,0-15.5-4.9-24.3v-6.2c0,0,4.6-8,4.8-9.2c0.3-1.1,0.9,4.3-2.6,9.1&#10;&#9;&#9;&#9;&#9;&#9;&#9;&#9;&#9;c0,0,6.9,9.7,7.6,30.5H594.3z" transform="matrix(1, 0, 0, 1, -375.2086486816406, -509.2117919921875)"/><path fill="#C3996B" d="M614.4,755.1c0,0-4.6,3.4-6.8,3.1c-2.3-0.3-13.4-14.2-16.2-15.7c-2.9-1.4,1.1-6,1.1-6&#10;&#9;&#9;&#9;&#9;&#9;&#9;&#9;&#9;S605.3,738.9,614.4,755.1z" transform="matrix(1, 0, 0, 1, -375.2086486816406, -509.2117919921875)"/><defs>
					<path d="M 992.599976 669.700012 A 136.5 136.5 0 0 1 856.099976 806.200012 A 136.5 136.5 0 0 1 719.599976 669.700012 A 136.5 136.5 0 0 1 856.099976 533.200012 A 136.5 136.5 0 0 1 992.599976 669.700012 Z" id="SVGID_13_"/>
				</defs><clipPath id="SVGID_14_">
					<use overflow="visible" xlink:href="#SVGID_13_"/>
				</clipPath><defs>
					<path d="M 1304.800049 669.700012 A 136.5 136.5 0 0 1 1168.300049 806.200012 A 136.5 136.5 0 0 1 1031.800049 669.700012 A 136.5 136.5 0 0 1 1168.300049 533.200012 A 136.5 136.5 0 0 1 1304.800049 669.700012 Z" id="SVGID_15_"/>
				</defs><clipPath id="SVGID_16_">
					<use overflow="visible" xlink:href="#SVGID_15_"/>
				</clipPath>
</svg>