<?xml version="1.0" encoding="utf-8"?>
<svg id="master-artboard" viewBox="0 0 343.74029541015625 322.5965881347656" version="1.1" xmlns="http://www.w3.org/2000/svg" x="0px" y="0px" enable-background="new 0 0 1400 980" width="343.74029541015625px" height="322.5965881347656px" xmlns:xlink="http://www.w3.org/1999/xlink"><rect id="ee-background" x="0" y="0" width="343.74029541015625" height="322.5965881347656" style="fill: white; fill-opacity: 0; pointer-events: none;"/>
<path d="M 0 0 H 1400 V 980 H 0 V 0 Z" fill="#FFFFFF" transform="matrix(1, 0, 0, 1, -679.4744873046875, -149.7681884765625)"/><path d="M 680.400024 310.299988 A 136.5 136.5 0 0 1 543.900024 446.799988 A 136.5 136.5 0 0 1 407.400024 310.299988 A 136.5 136.5 0 0 1 543.900024 173.799988 A 136.5 136.5 0 0 1 680.400024 310.299988 Z" fill="#FFEDD8" transform="matrix(1, 0, 0, 1, -679.4744873046875, -149.7681884765625)"/><defs>
					<path d="M 680.400024 310.299988 A 136.5 136.5 0 0 1 543.900024 446.799988 A 136.5 136.5 0 0 1 407.400024 310.299988 A 136.5 136.5 0 0 1 543.900024 173.799988 A 136.5 136.5 0 0 1 680.400024 310.299988 Z" id="SVGID_3_"/>
				</defs><clipPath id="SVGID_4_">
					<use overflow="visible" xlink:href="#SVGID_3_"/>
				</clipPath><path d="M 992.599976 310.299988 A 136.5 136.5 0 0 1 856.099976 446.799988 A 136.5 136.5 0 0 1 719.599976 310.299988 A 136.5 136.5 0 0 1 856.099976 173.799988 A 136.5 136.5 0 0 1 992.599976 310.299988 Z" fill="#FFEDD8" transform="matrix(1, 0, 0, 1, -679.4744873046875, -149.7681884765625)"/><defs>
					<path d="M 992.599976 310.299988 A 136.5 136.5 0 0 1 856.099976 446.799988 A 136.5 136.5 0 0 1 719.599976 310.299988 A 136.5 136.5 0 0 1 856.099976 173.799988 A 136.5 136.5 0 0 1 992.599976 310.299988 Z" id="SVGID_5_"/>
				</defs><clipPath id="SVGID_6_">
					<use overflow="visible" xlink:href="#SVGID_5_"/>
				</clipPath><g transform="matrix(1, 0, 0, 1, -679.4744873046875, -149.7681884765625)">
						<path fill="#FBB36B" d="M826.5,328.2c0,5.7-4.6,10.2-10.2,10.2l0,0c-5.7,0-10.2-4.6-10.2-10.2v-8.4c0-5.7,4.6-10.2,10.2-10.2&#10;&#9;&#9;&#9;&#9;&#9;&#9;&#9;l0,0c5.7,0,10.2,4.6,10.2,10.2V328.2z"/>
					</g><path fill="#FBB36B" d="M883.2,328.2c0,5.7,4.6,10.2,10.2,10.2l0,0c5.7,0,10.2-4.6,10.2-10.2v-8.4c0-5.7-4.6-10.2-10.2-10.2&#10;&#9;&#9;&#9;&#9;&#9;&#9;&#9;l0,0c-5.7,0-10.2,4.6-10.2,10.2V328.2z" transform="matrix(1, 0, 0, 1, -679.4744873046875, -149.7681884765625)"/><path fill="#3C362D" d="M903.2,264c0,0,3.8,20.5,1,39.5c-2.9,19-16.6,43.8-16.6,43.8l-64.2,2.4c0,0-13.3-15.2-14.7-38.5&#10;&#9;&#9;&#9;&#9;&#9;&#9;&#9;c-1.4-23.3,1-32.3,1-32.3L903.2,264z" transform="matrix(1, 0, 0, 1, -679.4744873046875, -149.7681884765625)"/><g transform="matrix(1, 0, 0, 1, -679.4744873046875, -149.7681884765625)">
							<path fill="#FECE8B" d="M896.7,387.7c-18.4-4.6-34.3-7.3-39.8-8.2v-0.3c0,0-0.4,0.1-1,0.2c-0.7-0.1-1-0.2-1-0.2v0.3&#10;&#9;&#9;&#9;&#9;&#9;&#9;&#9;&#9;c-5.5,0.9-21.4,3.6-39.8,8.2c-22.8,5.7-21.9,56.1-21.9,56.1h125.4C918.6,443.8,919.6,393.4,896.7,387.7z"/>
						</g><path fill="#211A16" d="M871.6,378.2l-4.7-4.7l-21.8,0.9l-4.4,3.8c0,0,2.5,9.2,4.4,10.1c1.9,1,10.5,1.9,12.7,1.9&#10;&#9;&#9;&#9;&#9;&#9;&#9;&#9;&#9;c2.2,0,6-2.5,6-2.5L871.6,378.2z" transform="matrix(1, 0, 0, 1, -679.4744873046875, -149.7681884765625)"/><path fill="#FBB36B" d="M862.6,364.9l-6.9-1.4l-6.9,1.4c0,0-5.2,14.3-5.2,20.5c0,6.2,12.1,9,12.1,9s12.1-2.9,12.1-9&#10;&#9;&#9;&#9;&#9;&#9;&#9;&#9;&#9;C867.9,379.1,862.6,364.9,862.6,364.9z" transform="matrix(1, 0, 0, 1, -679.4744873046875, -149.7681884765625)"/><path fill="#37302B" d="M809.7,390.3c0.9,5.5,2.4,15.8,2.4,26.6c0,0-4.2,13.1-4.7,27h95.9c-0.4-13.8-4.7-27-4.7-27&#10;&#9;&#9;&#9;&#9;&#9;&#9;&#9;&#9;c0-11.3,1.6-22,2.5-27.3c-1.4-0.8-2.8-1.5-4.4-1.9c-2.9-0.7-5.8-1.4-8.6-2c-3,23.1-28.2,27.1-32.8,27.6&#10;&#9;&#9;&#9;&#9;&#9;&#9;&#9;&#9;c-4.6-0.5-29.7-4.5-32.8-27.4c-2.4,0.6-4.9,1.2-7.5,1.8C813.1,388.2,811.3,389.2,809.7,390.3z" transform="matrix(1, 0, 0, 1, -679.4744873046875, -149.7681884765625)"/><path fill="#37302B" d="M856.1,384.9c0,0-11.5-2.7-15.5-6.7v8.9c0,0,3.1,7.9,15.5,7.9c12.4,0,15.5-7.9,15.5-7.9v-8.9&#10;&#9;&#9;&#9;&#9;&#9;&#9;&#9;&#9;C867.6,382.2,856.1,384.9,856.1,384.9z" transform="matrix(1, 0, 0, 1, -679.4744873046875, -149.7681884765625)"/><path fill="#FECE8B" d="M855.9,272.1l-39.3,10.4c0,0,0,3.3,0,42.4c0,39.1,39.3,53.3,39.3,53.3s39.3-14.1,39.3-53.3&#10;&#9;&#9;&#9;&#9;&#9;&#9;&#9;c0-39.1,0-42.4,0-42.4L855.9,272.1z" transform="matrix(1, 0, 0, 1, -679.4744873046875, -149.7681884765625)"/><g transform="matrix(1, 0, 0, 1, -679.4744873046875, -149.7681884765625)">
							<path fill="#3C362D" d="M878.1,314.9c0,3.2-1.1,5.9-2.5,5.9c-1.4,0-2.5-2.6-2.5-5.9c0-3.2,1.1-5.9,2.5-5.9&#10;&#9;&#9;&#9;&#9;&#9;&#9;&#9;&#9;C877,309.1,878.1,311.7,878.1,314.9z"/>
						</g><path fill="#3C362D" d="M838.8,314.9c0,3.2-1.1,5.9-2.5,5.9c-1.4,0-2.5-2.6-2.5-5.9c0-3.2,1.1-5.9,2.5-5.9&#10;&#9;&#9;&#9;&#9;&#9;&#9;&#9;&#9;C837.7,309.1,838.8,311.7,838.8,314.9z" transform="matrix(1, 0, 0, 1, -679.4744873046875, -149.7681884765625)"/><path fill="#FBB36B" d="M864,343.4l-8.6-6.2l-7.6,5.3c0,0,2.7,5.3,7.7,4.9C860.6,347,864,343.4,864,343.4z" transform="matrix(1, 0, 0, 1, -679.4744873046875, -149.7681884765625)"/><path fill="#F04B3A" d="M839.7,357L839.7,357c-0.4-0.4-0.4-1,0-1.3l0,0c0.4-0.4,1-0.4,1.4-0.1l0,0c0.1,0,4.1,3.9,12.6,3.9l0,0&#10;&#9;&#9;&#9;&#9;&#9;&#9;&#9;c0.3,0,0.6,0,0.9,0l0,0c9.3-0.3,17.3-4.3,17.4-4.3l0,0c0.5-0.2,1,0,1.3,0.4l0,0c0.2,0.5,0,1-0.4,1.3l0,0&#10;&#9;&#9;&#9;&#9;&#9;&#9;&#9;c-0.1,0-8.4,4.2-18.2,4.5l0,0c-0.3,0-0.7,0-1,0l0,0C844.5,361.4,839.8,357.1,839.7,357L839.7,357z" transform="matrix(1, 0, 0, 1, -679.4744873046875, -149.7681884765625)"/><path fill="#3C362D" d="M826.9,306.9c-1-0.4-1.4-1.5-1-2.5l0,0c0.1-0.2,2.2-5.3,8-6.5l0,0c0.5-0.1,1-0.2,1.4-0.2l0,0&#10;&#9;&#9;&#9;&#9;&#9;&#9;&#9;c5.9,0.2,11.4,5.6,11.6,5.7l0,0c0.8,0.7,0.8,1.9,0.1,2.7l0,0c-0.7,0.8-1.9,0.8-2.7,0.1l0,0c0,0-1.4-1.2-3.2-2.4l0,0&#10;&#9;&#9;&#9;&#9;&#9;&#9;&#9;c-1.9-1.2-4.2-2.4-5.9-2.3l0,0c-0.2,0-0.4,0-0.7,0.1l0,0c-3.7,0.6-5.3,4.2-5.3,4.3l0,0v0c-0.3,0.7-1,1.1-1.7,1.1l0,0&#10;&#9;&#9;&#9;&#9;&#9;&#9;&#9;C827.4,307,827.2,307,826.9,306.9L826.9,306.9z" transform="matrix(1, 0, 0, 1, -679.4744873046875, -149.7681884765625)"/><path fill="#3C362D" d="M884.7,308.2c0,0-0.9-1.6-2.2-3.1l0,0c-1.3-1.6-3.1-3.2-4.9-3.1l0,0h-0.1c-3.6-0.2-10,5.7-10,5.8l0,0&#10;&#9;&#9;&#9;&#9;&#9;&#9;&#9;c-0.7,0.7-1.9,0.7-2.7,0l0,0c-0.7-0.7-0.7-1.9,0-2.7l0,0c0.2,0,6.3-6.7,12.7-6.9l0,0c0.1,0,0.3,0,0.5,0l0,0&#10;&#9;&#9;&#9;&#9;&#9;&#9;&#9;c6.8,0.7,9.9,8.3,10.1,8.3l0,0c0.5,0.9,0.1,2.1-0.9,2.5l0,0c-0.3,0.1-0.6,0.2-0.8,0.2l0,0C885.7,309.2,885,308.8,884.7,308.2&#10;&#9;&#9;&#9;&#9;&#9;&#9;&#9;L884.7,308.2z" transform="matrix(1, 0, 0, 1, -679.4744873046875, -149.7681884765625)"/><path d="M 852.0999755859375 232.6999969482422 L 822 244.10000610351562 L 855 234.89999389648438 Z" fill="#F04B3A" transform="matrix(1, 0, 0, 1, -679.4744873046875, -149.7681884765625)"/><path fill="#3C362D" d="M854.8,245.6c0,0-9.8-8.1-8.1-19.9c1.7-11.8,42-27.5,45.2-1.5c3.2,26-12.8,26-12.8,26L854.8,245.6z" transform="matrix(1, 0, 0, 1, -679.4744873046875, -149.7681884765625)"/><path fill="#F04B3A" d="M888,247.9c0,6.7-9.4,12-21.1,12c-11.6,0-21.1-5.4-21.1-12c0-6.7,9.4-12.1,21.1-12.1&#10;&#9;&#9;&#9;&#9;&#9;&#9;&#9;C878.5,235.8,888,241.2,888,247.9z" transform="matrix(1, 0, 0, 1, -679.4744873046875, -149.7681884765625)"/><path fill="#3C362D" d="M888.6,282.9c0,0-17.8,8.9-39.5,16.1c-21.7,7.2-26.7,7.2-26.7,7.2l7.6-7.2c0,0-11.9,6.3-13.5,9.2&#10;&#9;&#9;&#9;&#9;&#9;&#9;&#9;s-1.3,9.2-1.3,9.2s-9.2-16.1-8.6-36.9c0.7-20.8,29.3-51.2,66.2-38.7c0,0,22.2-3,31.4,16.8c9.2,19.8-8.3,43.6-8.3,43.6&#10;&#9;&#9;&#9;&#9;&#9;&#9;&#9;L888.6,282.9z" transform="matrix(1, 0, 0, 1, -679.4744873046875, -149.7681884765625)"/><path fill="#F04B3A" d="M883.2,225c0,0,0.6,2.2,1.6,2.2c1,0,34.2-10.5,34.2-10.5l-1.3-3.5L883.2,225z" transform="matrix(1, 0, 0, 1, -679.4744873046875, -149.7681884765625)"/><defs>
					<path d="M 1304.800049 310.299988 A 136.5 136.5 0 0 1 1168.300049 446.799988 A 136.5 136.5 0 0 1 1031.800049 310.299988 A 136.5 136.5 0 0 1 1168.300049 173.799988 A 136.5 136.5 0 0 1 1304.800049 310.299988 Z" id="SVGID_7_"/>
				</defs><clipPath id="SVGID_8_">
					<use overflow="visible" xlink:href="#SVGID_7_"/>
				</clipPath><defs>
					<path d="M 368.199997 669.700012 A 136.5 136.5 0 0 1 231.699997 806.200012 A 136.5 136.5 0 0 1 95.199997 669.700012 A 136.5 136.5 0 0 1 231.699997 533.200012 A 136.5 136.5 0 0 1 368.199997 669.700012 Z" id="SVGID_9_"/>
				</defs><clipPath id="SVGID_10_">
					<use overflow="visible" xlink:href="#SVGID_9_"/>
				</clipPath><defs>
					<path d="M 680.400024 669.700012 A 136.5 136.5 0 0 1 543.900024 806.200012 A 136.5 136.5 0 0 1 407.400024 669.700012 A 136.5 136.5 0 0 1 543.900024 533.200012 A 136.5 136.5 0 0 1 680.400024 669.700012 Z" id="SVGID_11_"/>
				</defs><clipPath id="SVGID_12_">
					<use overflow="visible" xlink:href="#SVGID_11_"/>
				</clipPath><defs>
					<path d="M 992.599976 669.700012 A 136.5 136.5 0 0 1 856.099976 806.200012 A 136.5 136.5 0 0 1 719.599976 669.700012 A 136.5 136.5 0 0 1 856.099976 533.200012 A 136.5 136.5 0 0 1 992.599976 669.700012 Z" id="SVGID_13_"/>
				</defs><clipPath id="SVGID_14_">
					<use overflow="visible" xlink:href="#SVGID_13_"/>
				</clipPath><defs>
					<path d="M 1304.800049 669.700012 A 136.5 136.5 0 0 1 1168.300049 806.200012 A 136.5 136.5 0 0 1 1031.800049 669.700012 A 136.5 136.5 0 0 1 1168.300049 533.200012 A 136.5 136.5 0 0 1 1304.800049 669.700012 Z" id="SVGID_15_"/>
				</defs><clipPath id="SVGID_16_">
					<use overflow="visible" xlink:href="#SVGID_15_"/>
				</clipPath>
</svg>