<?xml version="1.0" encoding="utf-8"?>
<svg id="master-artboard" viewBox="0 0 343.74029541015625 322.5965881347656" version="1.1" xmlns="http://www.w3.org/2000/svg" x="0px" y="0px" enable-background="new 0 0 1400 980" width="343.74029541015625px" height="322.5965881347656px" xmlns:xlink="http://www.w3.org/1999/xlink"><rect id="ee-background" x="0" y="0" width="343.74029541015625" height="322.5965881347656" style="fill: white; fill-opacity: 0; pointer-events: none;"/>
<path d="M 0 0 H 1400 V 980 H 0 V 0 Z" fill="#FFFFFF" transform="matrix(1, 0, 0, 1, -999.5054626464844, -509.21180725097656)"/><defs>
					<path d="M 680.400024 310.299988 A 136.5 136.5 0 0 1 543.900024 446.799988 A 136.5 136.5 0 0 1 407.400024 310.299988 A 136.5 136.5 0 0 1 543.900024 173.799988 A 136.5 136.5 0 0 1 680.400024 310.299988 Z" id="SVGID_3_"/>
				</defs><clipPath id="SVGID_4_">
					<use overflow="visible" xlink:href="#SVGID_3_"/>
				</clipPath><defs>
					<path d="M 992.599976 310.299988 A 136.5 136.5 0 0 1 856.099976 446.799988 A 136.5 136.5 0 0 1 719.599976 310.299988 A 136.5 136.5 0 0 1 856.099976 173.799988 A 136.5 136.5 0 0 1 992.599976 310.299988 Z" id="SVGID_5_"/>
				</defs><clipPath id="SVGID_6_">
					<use overflow="visible" xlink:href="#SVGID_5_"/>
				</clipPath><defs>
					<path d="M 1304.800049 310.299988 A 136.5 136.5 0 0 1 1168.300049 446.799988 A 136.5 136.5 0 0 1 1031.800049 310.299988 A 136.5 136.5 0 0 1 1168.300049 173.799988 A 136.5 136.5 0 0 1 1304.800049 310.299988 Z" id="SVGID_7_"/>
				</defs><clipPath id="SVGID_8_">
					<use overflow="visible" xlink:href="#SVGID_7_"/>
				</clipPath><defs>
					<path d="M 368.199997 669.700012 A 136.5 136.5 0 0 1 231.699997 806.200012 A 136.5 136.5 0 0 1 95.199997 669.700012 A 136.5 136.5 0 0 1 231.699997 533.200012 A 136.5 136.5 0 0 1 368.199997 669.700012 Z" id="SVGID_9_"/>
				</defs><clipPath id="SVGID_10_">
					<use overflow="visible" xlink:href="#SVGID_9_"/>
				</clipPath><defs>
					<path d="M 680.400024 669.700012 A 136.5 136.5 0 0 1 543.900024 806.200012 A 136.5 136.5 0 0 1 407.400024 669.700012 A 136.5 136.5 0 0 1 543.900024 533.200012 A 136.5 136.5 0 0 1 680.400024 669.700012 Z" id="SVGID_11_"/>
				</defs><clipPath id="SVGID_12_">
					<use overflow="visible" xlink:href="#SVGID_11_"/>
				</clipPath><defs>
					<path d="M 992.599976 669.700012 A 136.5 136.5 0 0 1 856.099976 806.200012 A 136.5 136.5 0 0 1 719.599976 669.700012 A 136.5 136.5 0 0 1 856.099976 533.200012 A 136.5 136.5 0 0 1 992.599976 669.700012 Z" id="SVGID_13_"/>
				</defs><clipPath id="SVGID_14_">
					<use overflow="visible" xlink:href="#SVGID_13_"/>
				</clipPath><path d="M 1304.800049 669.700012 A 136.5 136.5 0 0 1 1168.300049 806.200012 A 136.5 136.5 0 0 1 1031.800049 669.700012 A 136.5 136.5 0 0 1 1168.300049 533.200012 A 136.5 136.5 0 0 1 1304.800049 669.700012 Z" fill="#FFEDD8" transform="matrix(1, 0, 0, 1, -999.5054626464844, -509.21180725097656)"/><defs>
					<path d="M 1304.800049 669.700012 A 136.5 136.5 0 0 1 1168.300049 806.200012 A 136.5 136.5 0 0 1 1031.800049 669.700012 A 136.5 136.5 0 0 1 1168.300049 533.200012 A 136.5 136.5 0 0 1 1304.800049 669.700012 Z" id="SVGID_15_"/>
				</defs><clipPath id="SVGID_16_">
					<use overflow="visible" xlink:href="#SVGID_15_"/>
				</clipPath><g transform="matrix(1, 0, 0, 1, -999.5054626464844, -509.21180725097656)">
						<path fill="#54ACD2" d="M1237.5,758.6c-13.1-15.3-48.7-19.6-67.4-20.1v0c-0.5,0-1.2,0-1.7,0c-0.6,0-1.2,0-1.7,0v0&#10;&#9;&#9;&#9;&#9;&#9;&#9;&#9;c-18.8,0.5-54.3,4.8-67.4,20.1c-14,16.3-14,46.5-14,46.5h166.3C1251.5,805.1,1251.5,774.9,1237.5,758.6z"/>
					</g><path d="M 1144.0999755859375 750.5999755859375 L 1145.5 738.5999755859375 L 1152.4000244140625 729.7000122070312 L 1170.0999755859375 729.7000122070312 L 1170.0999755859375 758.7999877929688 L 1166.5 755.2000122070312 L 1163.0999755859375 755.2000122070312 L 1154.300048828125 746.4000244140625 L 1154.300048828125 738.7999877929688 L 1152.300048828125 740.7999877929688 Z" fill="#547BB2" transform="matrix(1, 0, 0, 1, -999.5054626464844, -509.21180725097656)"/><path d="M 1193.0999755859375 750.5999755859375 L 1191.800048828125 738.5999755859375 L 1184.800048828125 729.7000122070312 L 1167.199951171875 729.7000122070312 L 1167.199951171875 758.7999877929688 L 1170.800048828125 755.2000122070312 L 1174.0999755859375 755.2000122070312 L 1182.9000244140625 746.4000244140625 L 1182.9000244140625 738.7999877929688 L 1184.9000244140625 740.7999877929688 Z" fill="#547BB2" transform="matrix(1, 0, 0, 1, -999.5054626464844, -509.21180725097656)"/><path fill="#FBB36B" d="M1179.1,746c0,0-3.7,11.1-10.4,11.1c-6.8,0-11.1-11.1-11.1-11.1v-18.4h21.5V746z" transform="matrix(1, 0, 0, 1, -999.5054626464844, -509.21180725097656)"/><path fill="#3C362D" d="M1157.7,649.6c0,18.8-15.3,34.1-34.1,34.1c-18.8,0-34.1-15.3-34.1-34.1c0-18.8,15.3-34.1,34.1-34.1&#10;&#9;&#9;&#9;&#9;&#9;&#9;&#9;C1142.4,615.5,1157.7,630.8,1157.7,649.6z" transform="matrix(1, 0, 0, 1, -999.5054626464844, -509.21180725097656)"/><path fill="#3C362D" d="M1170.5,617.8c0,18.8-15.3,34.1-34.1,34.1c-18.8,0-34.1-15.3-34.1-34.1c0-18.8,15.3-34.1,34.1-34.1&#10;&#9;&#9;&#9;&#9;&#9;&#9;&#9;C1155.2,583.7,1170.5,599,1170.5,617.8z" transform="matrix(1, 0, 0, 1, -999.5054626464844, -509.21180725097656)"/><path fill="#3C362D" d="M1196.4,593.8c0,18.8-15.3,34.1-34.1,34.1c-18.8,0-34.1-15.3-34.1-34.1c0-18.8,15.3-34.1,34.1-34.1&#10;&#9;&#9;&#9;&#9;&#9;&#9;&#9;C1181.2,559.7,1196.4,575,1196.4,593.8z" transform="matrix(1, 0, 0, 1, -999.5054626464844, -509.21180725097656)"/><path fill="#3C362D" d="M1229.4,608.1c0,18.8-15.3,34.1-34.1,34.1c-18.8,0-34.1-15.3-34.1-34.1c0-18.8,15.3-34.1,34.1-34.1&#10;&#9;&#9;&#9;&#9;&#9;&#9;&#9;C1214.1,574,1229.4,589.3,1229.4,608.1z" transform="matrix(1, 0, 0, 1, -999.5054626464844, -509.21180725097656)"/><path fill="#3C362D" d="M1240.6,642.2c0,18.8-15.3,34.1-34.1,34.1c-18.8,0-34.1-15.3-34.1-34.1c0-18.8,15.3-34.1,34.1-34.1&#10;&#9;&#9;&#9;&#9;&#9;&#9;&#9;C1225.3,608.1,1240.6,623.4,1240.6,642.2z" transform="matrix(1, 0, 0, 1, -999.5054626464844, -509.21180725097656)"/><path fill="#3C362D" d="M1236,679.6c0,17.6-14.3,32-32,32c-17.7,0-32-14.3-32-32c0-17.6,14.3-32,32-32&#10;&#9;&#9;&#9;&#9;&#9;&#9;&#9;C1221.6,647.6,1236,662,1236,679.6z" transform="matrix(1, 0, 0, 1, -999.5054626464844, -509.21180725097656)"/><path fill="#3C362D" d="M1167,679.6c0,17.6-14.3,32-32,32c-17.7,0-32-14.3-32-32c0-17.6,14.3-32,32-32&#10;&#9;&#9;&#9;&#9;&#9;&#9;&#9;C1152.7,647.6,1167,662,1167,679.6z" transform="matrix(1, 0, 0, 1, -999.5054626464844, -509.21180725097656)"/><g transform="matrix(1, 0, 0, 1, -999.5054626464844, -509.21180725097656)">
							<path fill="#FBB36B" d="M1140.1,691.2c0,6.1-5,11.1-11.1,11.1l0,0c-6.1,0-11.1-5-11.1-11.1v-9.8c0-6.1,5-11.1,11.1-11.1l0,0&#10;&#9;&#9;&#9;&#9;&#9;&#9;&#9;&#9;c6.1,0,11.1,5,11.1,11.1V691.2z"/>
						</g><path fill="#FBB36B" d="M1196.6,691.2c0,6.1,5,11.1,11.1,11.1l0,0c6.1,0,11.1-5,11.1-11.1v-9.8c0-6.1-5-11.1-11.1-11.1l0,0&#10;&#9;&#9;&#9;&#9;&#9;&#9;&#9;&#9;c-6.1,0-11.1,5-11.1,11.1V691.2z" transform="matrix(1, 0, 0, 1, -999.5054626464844, -509.21180725097656)"/><path fill="#FECE8B" d="M1207.1,636l-0.1,0c-1.4-33.1-38.6-31.2-38.6-31.2s-37.2-1.9-38.6,31.2l-0.1,0c0,0,0,0.6,0,1.7&#10;&#9;&#9;&#9;&#9;&#9;&#9;&#9;&#9;c0,0,0,0,0,0c0,35,0,65.1,0,65.1l0.1,0c1.4,33.1,38.6,31.2,38.6,31.2s37.2,1.9,38.6-31.2l0.1,0c0,0,0-0.6,0-1.7c0,0,0,0,0,0&#10;&#9;&#9;&#9;&#9;&#9;&#9;&#9;&#9;C1207.1,666.1,1207.1,636,1207.1,636z" transform="matrix(1, 0, 0, 1, -999.5054626464844, -509.21180725097656)"/><path fill="#FBB36B" d="M1206.9,635.9c-1.4-33.1-38.6-31.2-38.6-31.2s-1,0-2.5,0c8.3,0.3,34.9,3.3,36.1,31.2l0.1,0&#10;&#9;&#9;&#9;&#9;&#9;&#9;&#9;&#9;c0,0,0,30.1,0,65.1c0,0,0,0,0,0c0,1.1,0,1.7,0,1.7l-0.1,0c-1.2,27.9-27.8,30.9-36.1,31.2c1.5,0,2.5,0,2.5,0&#10;&#9;&#9;&#9;&#9;&#9;&#9;&#9;&#9;s37.2,1.9,38.6-31.2l0.1,0c0,0,0-0.6,0-1.7c0,0,0,0,0,0c0-35,0-65.1,0-65.1L1206.9,635.9z" transform="matrix(1, 0, 0, 1, -999.5054626464844, -509.21180725097656)"/><path fill="#FBB36B" d="M1177.4,702c0,0-4.7-5.2-8-5.2c-3.4,0-7.8,4.6-7.8,4.6s2.8,5.4,8,5.4&#10;&#9;&#9;&#9;&#9;&#9;&#9;&#9;&#9;C1174.8,706.9,1177.4,702,1177.4,702z" transform="matrix(1, 0, 0, 1, -999.5054626464844, -509.21180725097656)"/><path fill="#3C362D" d="M1186.9,674c0,2.6-0.9,4.8-2.1,4.8c-1.1,0-2.1-2.1-2.1-4.8c0-2.6,0.9-4.8,2.1-4.8&#10;&#9;&#9;&#9;&#9;&#9;&#9;&#9;&#9;C1186,669.2,1186.9,671.3,1186.9,674z" transform="matrix(1, 0, 0, 1, -999.5054626464844, -509.21180725097656)"/><path fill="#3C362D" d="M1154.9,674c0,2.6-0.9,4.8-2.1,4.8c-1.1,0-2.1-2.1-2.1-4.8c0-2.6,0.9-4.8,2.1-4.8&#10;&#9;&#9;&#9;&#9;&#9;&#9;&#9;&#9;C1154,669.2,1154.9,671.3,1154.9,674z" transform="matrix(1, 0, 0, 1, -999.5054626464844, -509.21180725097656)"/><path fill="#3C362D" d="M1152.2,715.6c-0.2-0.4-0.1-0.8,0.3-1.1l0,0c0.4-0.2,0.8-0.1,1.1,0.3l0,0c0.1,0,4.1,6.8,16.1,6.9l0,0&#10;&#9;&#9;&#9;&#9;&#9;&#9;&#9;&#9;c12,0,16.6-8.1,16.6-8.1l0,0c0.2-0.4,0.7-0.5,1.1-0.3l0,0c0.4,0.2,0.5,0.7,0.3,1l0,0c-0.1,0.1-5.2,8.9-18,8.9l0,0&#10;&#9;&#9;&#9;&#9;&#9;&#9;&#9;&#9;C1156.9,723.2,1152.2,715.7,1152.2,715.6L1152.2,715.6z" transform="matrix(1, 0, 0, 1, -999.5054626464844, -509.21180725097656)"/><path fill="#FFE4A6" d="M1156.2,610.1c0.9,1.2-2.4,5.4-7.5,9.4c-5.1,4-10,6.4-10.9,5.2c-0.9-1.2,2.4-5.4,7.5-9.4&#10;&#9;&#9;&#9;&#9;&#9;&#9;&#9;&#9;C1150.4,611.2,1155.3,608.9,1156.2,610.1z" transform="matrix(1, 0, 0, 1, -999.5054626464844, -509.21180725097656)"/><path fill="#3C362D" d="M1161.1,662.8c0,0-0.9-0.7-2.2-1.3l0,0c-1.3-0.7-3.1-1.3-4.8-1.3l0,0c-3.7,0-9.6,1.7-9.6,1.8l0,0v0&#10;&#9;&#9;&#9;&#9;&#9;&#9;&#9;&#9;c-0.4,0.1-0.9-0.1-1-0.5l0,0c-0.1-0.4,0.1-0.8,0.5-1l0,0c0,0,6-1.8,10-1.8l0,0c4.2,0,7.9,3,8,3l0,0c0.3,0.3,0.4,0.7,0.1,1.1&#10;&#9;&#9;&#9;&#9;&#9;&#9;&#9;&#9;l0,0c-0.2,0.2-0.4,0.3-0.6,0.3l0,0C1161.4,663,1161.3,662.9,1161.1,662.8L1161.1,662.8z" transform="matrix(1, 0, 0, 1, -999.5054626464844, -509.21180725097656)"/><path fill="#3C362D" d="M1176.2,662.7c-0.3-0.3-0.2-0.8,0.1-1.1l0,0c0.1,0,3.7-3,8-3l0,0c4.1,0,10,1.8,10,1.8l0,0&#10;&#9;&#9;&#9;&#9;&#9;&#9;&#9;&#9;c0.4,0.1,0.6,0.6,0.5,1l0,0c-0.1,0.4-0.6,0.6-1,0.5l0,0c0,0-5.9-1.8-9.6-1.8l0,0c-3.5,0-7,2.7-7,2.7l0,0&#10;&#9;&#9;&#9;&#9;&#9;&#9;&#9;&#9;c-0.1,0.1-0.3,0.2-0.5,0.2l0,0C1176.6,663,1176.4,662.9,1176.2,662.7L1176.2,662.7z" transform="matrix(1, 0, 0, 1, -999.5054626464844, -509.21180725097656)"/><path fill="#3C362D" d="M1128,651.9c0,0,4.1-20.7,22-26.6c17.8-5.9,30-5.9,39.8,0.3c9.8,6.2,19.9,30.5,20.4,34.4&#10;&#9;&#9;&#9;&#9;&#9;&#9;&#9;c0.5,3.9,3.9-30-4.9-46c-8.8-16-27.1-23.3-48.1-15.5c-20.9,7.7-22,6.5-24.8,11.4C1129.5,614.7,1124.6,634.8,1128,651.9z" transform="matrix(1, 0, 0, 1, -999.5054626464844, -509.21180725097656)"/><path fill="#4792B6" d="M1107,805.1h8v-40c0,0-8,32.6-8,38.2C1107,803.9,1107,804.5,1107,805.1z M1221.7,765.1v40h8&#10;&#9;&#9;&#9;&#9;&#9;&#9;&#9;c0-0.6,0-1.1,0-1.8C1229.7,797.6,1221.7,765.1,1221.7,765.1z" transform="matrix(1, 0, 0, 1, -999.5054626464844, -509.21180725097656)"/><path fill="#3C362D" d="M1139.1,643.2c0,4.3-3.5,7.9-7.9,7.9c-4.4,0-7.9-3.5-7.9-7.9c0-4.4,3.5-7.9,7.9-7.9&#10;&#9;&#9;&#9;&#9;&#9;&#9;&#9;C1135.6,635.4,1139.1,638.9,1139.1,643.2z" transform="matrix(1, 0, 0, 1, -999.5054626464844, -509.21180725097656)"/><path fill="#3C362D" d="M1144.8,634.8c0,3.7-3,6.7-6.7,6.7s-6.7-3-6.7-6.7c0-3.7,3-6.7,6.7-6.7S1144.8,631.1,1144.8,634.8z" transform="matrix(1, 0, 0, 1, -999.5054626464844, -509.21180725097656)"/><path fill="#3C362D" d="M1148.1,626.3c0,2.6-2.1,4.6-4.6,4.6c-2.6,0-4.7-2.1-4.7-4.6c0-2.6,2.1-4.7,4.7-4.7&#10;&#9;&#9;&#9;&#9;&#9;&#9;&#9;C1146,621.7,1148.1,623.8,1148.1,626.3z" transform="matrix(1, 0, 0, 1, -999.5054626464844, -509.21180725097656)"/><path fill="#3C362D" d="M1153.5,620.1c0,2.1-1.7,3.9-3.9,3.9c-2.1,0-3.9-1.7-3.9-3.9c0-2.1,1.7-3.9,3.9-3.9&#10;&#9;&#9;&#9;&#9;&#9;&#9;&#9;C1151.8,616.2,1153.5,618,1153.5,620.1z" transform="matrix(1, 0, 0, 1, -999.5054626464844, -509.21180725097656)"/><path fill="#3C362D" d="M1153.8,625.3c0,2.1-1.7,3.9-3.9,3.9s-3.9-1.7-3.9-3.9c0-2.1,1.7-3.9,3.9-3.9&#10;&#9;&#9;&#9;&#9;&#9;&#9;&#9;S1153.8,623.1,1153.8,625.3z" transform="matrix(1, 0, 0, 1, -999.5054626464844, -509.21180725097656)"/><path d="M 1131.300048828125 659.0999755859375 L 1131.300048828125 694.7999877929688 L 1129 692.2000122070312 L 1122.5 666.5999755859375 Z" fill="#3C362D" transform="matrix(1, 0, 0, 1, -999.5054626464844, -509.21180725097656)"/><path fill="#3C362D" d="M1137,658.3c0,5.8-4.7,10.6-10.6,10.6c-5.9,0-10.6-4.8-10.6-10.6c0-5.8,4.7-10.6,10.6-10.6&#10;&#9;&#9;&#9;&#9;&#9;&#9;&#9;C1132.3,647.8,1137,652.5,1137,658.3z" transform="matrix(1, 0, 0, 1, -999.5054626464844, -509.21180725097656)"/><path fill="#3C362D" d="M1195.4,643.2c0,4.3,3.5,7.9,7.9,7.9c4.4,0,7.9-3.5,7.9-7.9c0-4.4-3.5-7.9-7.9-7.9&#10;&#9;&#9;&#9;&#9;&#9;&#9;&#9;C1198.9,635.4,1195.4,638.9,1195.4,643.2z" transform="matrix(1, 0, 0, 1, -999.5054626464844, -509.21180725097656)"/><path fill="#3C362D" d="M1189.7,634.8c0,3.7,3,6.7,6.7,6.7c3.7,0,6.7-3,6.7-6.7c0-3.7-3-6.7-6.7-6.7&#10;&#9;&#9;&#9;&#9;&#9;&#9;&#9;C1192.7,628.1,1189.7,631.1,1189.7,634.8z" transform="matrix(1, 0, 0, 1, -999.5054626464844, -509.21180725097656)"/><path d="M 1195.7 626.299988 A 4.7 4.7 0 0 1 1191 630.999988 A 4.7 4.7 0 0 1 1186.3 626.299988 A 4.7 4.7 0 0 1 1191 621.599988 A 4.7 4.7 0 0 1 1195.7 626.299988 Z" fill="#3C362D" transform="matrix(1, 0, 0, 1, -999.5054626464844, -509.21180725097656)"/><path fill="#3C362D" d="M1180.9,620.1c0,2.1,1.7,3.9,3.9,3.9c2.1,0,3.9-1.7,3.9-3.9c0-2.1-1.7-3.9-3.9-3.9&#10;&#9;&#9;&#9;&#9;&#9;&#9;&#9;C1182.7,616.2,1180.9,618,1180.9,620.1z" transform="matrix(1, 0, 0, 1, -999.5054626464844, -509.21180725097656)"/><path fill="#3C362D" d="M1180.7,625.3c0,2.1,1.7,3.9,3.9,3.9c2.1,0,3.9-1.7,3.9-3.9c0-2.1-1.7-3.9-3.9-3.9&#10;&#9;&#9;&#9;&#9;&#9;&#9;&#9;C1182.4,621.4,1180.7,623.1,1180.7,625.3z" transform="matrix(1, 0, 0, 1, -999.5054626464844, -509.21180725097656)"/><path d="M 1203.0999755859375 659.0999755859375 L 1203.0999755859375 694.7999877929688 L 1205.5 692.2000122070312 L 1211.9000244140625 666.5999755859375 Z" fill="#3C362D" transform="matrix(1, 0, 0, 1, -999.5054626464844, -509.21180725097656)"/><path fill="#3C362D" d="M1197.5,658.3c0,5.8,4.7,10.6,10.6,10.6c5.9,0,10.6-4.8,10.6-10.6c0-5.8-4.7-10.6-10.6-10.6&#10;&#9;&#9;&#9;&#9;&#9;&#9;&#9;C1202.2,647.8,1197.5,652.5,1197.5,658.3z" transform="matrix(1, 0, 0, 1, -999.5054626464844, -509.21180725097656)"/><path fill="#3C362D" d="M1160.5,616.9c0,2.8-2.3,5-5,5c-2.8,0-5-2.3-5-5c0-2.8,2.3-5,5-5&#10;&#9;&#9;&#9;&#9;&#9;&#9;&#9;C1158.3,611.8,1160.5,614.1,1160.5,616.9z" transform="matrix(1, 0, 0, 1, -999.5054626464844, -509.21180725097656)"/><path fill="#3C362D" d="M1162.5,621.9c0,2.8-2.3,5-5,5c-2.8,0-5-2.3-5-5c0-2.8,2.3-5,5-5&#10;&#9;&#9;&#9;&#9;&#9;&#9;&#9;C1160.2,616.9,1162.5,619.1,1162.5,621.9z" transform="matrix(1, 0, 0, 1, -999.5054626464844, -509.21180725097656)"/><path fill="#3C362D" d="M1181.8,623c0,2.8-2.3,5-5,5s-5-2.3-5-5c0-2.8,2.3-5,5-5S1181.8,620.2,1181.8,623z" transform="matrix(1, 0, 0, 1, -999.5054626464844, -509.21180725097656)"/><path fill="#3C362D" d="M1173,621.9c0,2.8-2.3,5-5,5c-2.8,0-5-2.3-5-5c0-2.8,2.3-5,5-5C1170.8,616.9,1173,619.1,1173,621.9z" transform="matrix(1, 0, 0, 1, -999.5054626464844, -509.21180725097656)"/><path fill="#3C362D" d="M1168.4,615.7c0,2.8-2.3,5-5,5s-5-2.3-5-5c0-2.8,2.3-5,5-5S1168.4,612.9,1168.4,615.7z" transform="matrix(1, 0, 0, 1, -999.5054626464844, -509.21180725097656)"/><path d="M 1185.400024 615.5 A 5 5 0 0 1 1180.400024 620.5 A 5 5 0 0 1 1175.400024 615.5 A 5 5 0 0 1 1180.400024 610.5 A 5 5 0 0 1 1185.400024 615.5 Z" fill="#3C362D" transform="matrix(1, 0, 0, 1, -999.5054626464844, -509.21180725097656)"/><path d="M 1168.699951171875 757.2000122070312 L 1155.699951171875 744.4000244140625 L 1155.699951171875 734.4000244140625 L 1153.4000244140625 734.4000244140625 L 1144.0999755859375 750.5999755859375 L 1146.300048828125 752.9000244140625 L 1153.199951171875 741.7000122070312 L 1153.199951171875 748.2999877929688 L 1164.0999755859375 758.7999877929688 L 1168.699951171875 758.7999877929688 Z" fill="#445E77" transform="matrix(1, 0, 0, 1, -999.5054626464844, -509.21180725097656)"/><path d="M 1168.5 757.2000122070312 L 1181.5 744.4000244140625 L 1181.5 734.4000244140625 L 1183.800048828125 734.4000244140625 L 1193.0999755859375 750.5999755859375 L 1190.9000244140625 752.9000244140625 L 1184 741.7000122070312 L 1184 748.2999877929688 L 1173.199951171875 758.7999877929688 L 1168.5 758.7999877929688 Z" fill="#445E77" transform="matrix(1, 0, 0, 1, -999.5054626464844, -509.21180725097656)"/>
</svg>