<?xml version="1.0" encoding="utf-8"?>
<svg id="master-artboard" viewBox="0 0 345.3168029785156 332.0556335449219" version="1.1" xmlns="http://www.w3.org/2000/svg" x="0px" y="0px" enable-background="new 0 0 1400 980" width="345.3168029785156px" height="332.0556335449219px" xmlns:xlink="http://www.w3.org/1999/xlink"><rect id="ee-background" x="0" y="0" width="345.3168029785156" height="332.0556335449219" style="fill: white; fill-opacity: 0; pointer-events: none;"/>
<path d="M 0 0 H 1400 V 980 H 0 V 0 Z" fill="#FFFFFF" transform="matrix(1, 0, 0, 1, -372.0557556152344, -154.4976806640625)"/><path d="M 680.400024 310.299988 A 136.5 136.5 0 0 1 543.900024 446.799988 A 136.5 136.5 0 0 1 407.400024 310.299988 A 136.5 136.5 0 0 1 543.900024 173.799988 A 136.5 136.5 0 0 1 680.400024 310.299988 Z" fill="#FFEDD8" transform="matrix(1, 0, 0, 1, -372.0557556152344, -154.4976806640625)"/><defs>
					<path d="M 680.400024 310.299988 A 136.5 136.5 0 0 1 543.900024 446.799988 A 136.5 136.5 0 0 1 407.400024 310.299988 A 136.5 136.5 0 0 1 543.900024 173.799988 A 136.5 136.5 0 0 1 680.400024 310.299988 Z" id="SVGID_3_"/>
				</defs><clipPath id="SVGID_4_">
					<use overflow="visible" xlink:href="#SVGID_3_"/>
				</clipPath><g transform="matrix(1, 0, 0, 1, -372.0557556152344, -154.4976806640625)">
						<path fill="#FBB36B" d="M516.6,325.1c0,6.4-5.2,11.6-11.6,11.6l0,0c-6.4,0-11.6-5.2-11.6-11.6v-10.3c0-6.4,5.2-11.6,11.6-11.6&#10;&#9;&#9;&#9;&#9;&#9;&#9;&#9;l0,0c6.4,0,11.6,5.2,11.6,11.6V325.1z"/>
					</g><path fill="#FBB36B" d="M575.7,325.1c0,6.4,5.2,11.6,11.6,11.6l0,0c6.4,0,11.6-5.2,11.6-11.6v-10.3c0-6.4-5.2-11.6-11.6-11.6&#10;&#9;&#9;&#9;&#9;&#9;&#9;&#9;l0,0c-6.4,0-11.6,5.2-11.6,11.6V325.1z" transform="matrix(1, 0, 0, 1, -372.0557556152344, -154.4976806640625)"/><path fill="#2A3B8F" d="M616.2,395.5c-13.7-16-50.9-20.5-70.4-21v-0.1c-0.6,0-1.2,0-1.8,0c-0.6,0-1.3,0-1.8,0v0.1&#10;&#9;&#9;&#9;&#9;&#9;&#9;&#9;c-19.6,0.5-56.8,5.1-70.4,21c-14.6,17-14.6,71.9-14.6,71.9h173.7C630.7,467.3,630.7,412.5,616.2,395.5z" transform="matrix(1, 0, 0, 1, -372.0557556152344, -154.4976806640625)"/><path fill="#1D76BB" d="M546.5,397.9c13.6,0,24.7-7.6,24.7-17c0-1.4-0.3-2.8-0.8-4.2c-9.2-1.4-18-2.1-24.7-2.3v-0.1&#10;&#9;&#9;&#9;&#9;&#9;&#9;&#9;c-0.6,0-1.2,0-1.8,0c-0.6,0-1.3,0-1.8,0v0.1c-5.3,0.1-12,0.6-19.1,1.5c-0.7,1.6-1.2,3.2-1.2,5&#10;&#9;&#9;&#9;&#9;&#9;&#9;&#9;C521.8,390.3,532.9,397.9,546.5,397.9z" transform="matrix(1, 0, 0, 1, -372.0557556152344, -154.4976806640625)"/><path fill="#FBB36B" d="M557,382.3c0,0-3.9,11.6-10.9,11.6s-11.6-11.6-11.6-11.6V363H557V382.3z" transform="matrix(1, 0, 0, 1, -372.0557556152344, -154.4976806640625)"/><path fill="#3C362D" d="M508.6,329.1c0,0-11.3-42.1-13-60.5c-1.6-18.4-1.6-31.3,3.2-31.8c4.9-0.5,8.6,0,8.6,0&#10;&#9;&#9;&#9;&#9;&#9;&#9;&#9;s9.2-15.1,47.5-17.3c38.3-2.2,46.4,9.7,45.3,32.9c-1.1,23.2-13.5,70.7-14.6,74.5C584.7,330.7,508.6,329.1,508.6,329.1z" transform="matrix(1, 0, 0, 1, -372.0557556152344, -154.4976806640625)"/><path fill="#FECE8B" d="M546.1,259.4l-40.5,7.9c0,0,0,31.5,0,68.1c0,36.6,40.5,34.5,40.5,34.5s40.5,2.1,40.5-34.5&#10;&#9;&#9;&#9;&#9;&#9;&#9;&#9;c0-36.6,0-68.1,0-68.1L546.1,259.4z" transform="matrix(1, 0, 0, 1, -372.0557556152344, -154.4976806640625)"/><path fill="#FBB36B" d="M555.6,336.3c0,0-4.9-5.4-8.4-5.4c-3.5,0-8.1,4.9-8.1,4.9s3,5.7,8.4,5.7&#10;&#9;&#9;&#9;&#9;&#9;&#9;&#9;C552.9,341.5,555.6,336.3,555.6,336.3z" transform="matrix(1, 0, 0, 1, -372.0557556152344, -154.4976806640625)"/><path d="M 565.600024 307.100006 A 2.2 5 0 0 1 563.400024 312.100006 A 2.2 5 0 0 1 561.200024 307.100006 A 2.2 5 0 0 1 563.400024 302.100006 A 2.2 5 0 0 1 565.600024 307.100006 Z" fill="#3C362D" transform="matrix(1, 0, 0, 1, -372.0557556152344, -154.4976806640625)"/><path fill="#3C362D" d="M532.1,307.1c0,2.8-1,5-2.2,5c-1.2,0-2.2-2.2-2.2-5c0-2.8,1-5,2.2-5&#10;&#9;&#9;&#9;&#9;&#9;&#9;&#9;C531.1,302.1,532.1,304.3,532.1,307.1z" transform="matrix(1, 0, 0, 1, -372.0557556152344, -154.4976806640625)"/><path fill="#3C362D" d="M569.7,294.3c0,0-2.8-5.5-5.8-5.2l0,0c-3.2-0.2-6.1,4.7-6.1,4.8l0,0l0,0c-0.4,0.8-1.4,1.1-2.2,0.7l0,0&#10;&#9;&#9;&#9;&#9;&#9;&#9;&#9;c-0.8-0.4-1.1-1.4-0.7-2.2l0,0c0.1-0.1,3-6.3,9-6.5l0,0c6.1,0.3,8.6,7.1,8.8,7.2l0,0c0.4,0.8,0,1.8-0.8,2.1l0,0&#10;&#9;&#9;&#9;&#9;&#9;&#9;&#9;c-0.2,0.1-0.4,0.1-0.6,0.1l0,0C570.6,295.3,570,295,569.7,294.3L569.7,294.3z" transform="matrix(1, 0, 0, 1, -372.0557556152344, -154.4976806640625)"/><path fill="#3C362D" d="M536.3,294.3c0,0-2.8-5.5-5.8-5.2l0,0c-3.2-0.2-6.1,4.7-6.1,4.8l0,0v0c-0.4,0.8-1.4,1.1-2.2,0.7l0,0&#10;&#9;&#9;&#9;&#9;&#9;&#9;&#9;c-0.8-0.4-1.1-1.4-0.7-2.2l0,0c0.1-0.1,3-6.3,9-6.5l0,0c6.1,0.3,8.6,7.1,8.8,7.2l0,0c0.4,0.8,0,1.8-0.8,2.1l0,0&#10;&#9;&#9;&#9;&#9;&#9;&#9;&#9;c-0.2,0.1-0.4,0.1-0.6,0.1l0,0C537.1,295.3,536.5,295,536.3,294.3L536.3,294.3z" transform="matrix(1, 0, 0, 1, -372.0557556152344, -154.4976806640625)"/><path fill="#3C362D" d="M529.2,350.5c-0.2-0.4-0.1-0.9,0.3-1.1l0,0c0.4-0.2,0.9-0.1,1.1,0.3l0,0c0.1,0,4.3,7.2,16.9,7.2l0,0&#10;&#9;&#9;&#9;&#9;&#9;&#9;&#9;c12.5,0,17.4-8.5,17.4-8.5l0,0c0.2-0.4,0.7-0.5,1.1-0.3l0,0c0.4,0.2,0.5,0.7,0.3,1.1l0,0c-0.1,0.1-5.4,9.3-18.8,9.3l0,0&#10;&#9;&#9;&#9;&#9;&#9;&#9;&#9;C534.2,358.5,529.3,350.7,529.2,350.5L529.2,350.5z" transform="matrix(1, 0, 0, 1, -372.0557556152344, -154.4976806640625)"/><defs>
					<path d="M 992.599976 310.299988 A 136.5 136.5 0 0 1 856.099976 446.799988 A 136.5 136.5 0 0 1 719.599976 310.299988 A 136.5 136.5 0 0 1 856.099976 173.799988 A 136.5 136.5 0 0 1 992.599976 310.299988 Z" id="SVGID_5_"/>
				</defs><clipPath id="SVGID_6_">
					<use overflow="visible" xlink:href="#SVGID_5_"/>
				</clipPath><defs>
					<path d="M 1304.800049 310.299988 A 136.5 136.5 0 0 1 1168.300049 446.799988 A 136.5 136.5 0 0 1 1031.800049 310.299988 A 136.5 136.5 0 0 1 1168.300049 173.799988 A 136.5 136.5 0 0 1 1304.800049 310.299988 Z" id="SVGID_7_"/>
				</defs><clipPath id="SVGID_8_">
					<use overflow="visible" xlink:href="#SVGID_7_"/>
				</clipPath><defs>
					<path d="M 368.199997 669.700012 A 136.5 136.5 0 0 1 231.699997 806.200012 A 136.5 136.5 0 0 1 95.199997 669.700012 A 136.5 136.5 0 0 1 231.699997 533.200012 A 136.5 136.5 0 0 1 368.199997 669.700012 Z" id="SVGID_9_"/>
				</defs><clipPath id="SVGID_10_">
					<use overflow="visible" xlink:href="#SVGID_9_"/>
				</clipPath><defs>
					<path d="M 680.400024 669.700012 A 136.5 136.5 0 0 1 543.900024 806.200012 A 136.5 136.5 0 0 1 407.400024 669.700012 A 136.5 136.5 0 0 1 543.900024 533.200012 A 136.5 136.5 0 0 1 680.400024 669.700012 Z" id="SVGID_11_"/>
				</defs><clipPath id="SVGID_12_">
					<use overflow="visible" xlink:href="#SVGID_11_"/>
				</clipPath><defs>
					<path d="M 992.599976 669.700012 A 136.5 136.5 0 0 1 856.099976 806.200012 A 136.5 136.5 0 0 1 719.599976 669.700012 A 136.5 136.5 0 0 1 856.099976 533.200012 A 136.5 136.5 0 0 1 992.599976 669.700012 Z" id="SVGID_13_"/>
				</defs><clipPath id="SVGID_14_">
					<use overflow="visible" xlink:href="#SVGID_13_"/>
				</clipPath><defs>
					<path d="M 1304.800049 669.700012 A 136.5 136.5 0 0 1 1168.300049 806.200012 A 136.5 136.5 0 0 1 1031.800049 669.700012 A 136.5 136.5 0 0 1 1168.300049 533.200012 A 136.5 136.5 0 0 1 1304.800049 669.700012 Z" id="SVGID_15_"/>
				</defs><clipPath id="SVGID_16_">
					<use overflow="visible" xlink:href="#SVGID_15_"/>
				</clipPath>
</svg>